<svg version="1.2" xmlns="http://www.w3.org/2000/svg" viewBox="0 0 380 380" width="380" height="380">
	<title>abori10-ai</title>
	<style>
		.s0 { fill: #231f20 } 
		.s1 { fill: #6e1301 } 
		.s2 { fill: #ffffff } 
		.s3 { fill: #f26522 } 
	</style>
	<g id="_Artboards_">
	</g>
	<g id="Layer 1">
		<g id="&lt;Group&gt;">
			<path id="&lt;Path&gt;" class="s0" d="m11.3 160.7c0-88.5 123.1-135 198.3-135 59.8 0 140.2 63.4 148.2 121.7 12.2 87.3-3.5 196.6-113.2 196.6-37.4 0-75.2 10.5-110-5-28.5-12.8-54.2-31.2-74.6-54-29.9-33.4-48.7-76.1-48.7-124.3z"/>
			<path id="&lt;Path&gt;" class="s1" d="m46.3 165.9c0-70.8 98.5-108 158.6-108 47.9 0 112.2 50.7 118.6 97.3 9.7 69.8-2.8 157.3-90.6 157.3-29.9 0-60.1 8.5-88-4-22.7-10.2-43.3-24.9-59.7-43.2-23.9-26.7-38.9-60.9-38.9-99.4z"/>
			<path id="&lt;Path&gt;" class="s2" d="m80.1 170.9c0-53.7 74.7-81.9 120.3-81.9 36.3 0 85.1 38.4 90 73.8 7.3 53-2.1 119.3-68.7 119.3-22.7 0-45.7 6.4-66.8-3-17.2-7.8-32.8-19-45.2-32.8-18.2-20.2-29.6-46.2-29.6-75.4z"/>
			<path id="&lt;Path&gt;" class="s3" d="m109.6 175.2c0-38.7 53.9-59.1 86.9-59.1 26.2 0 61.5 27.8 65 53.3 5.3 38.3-1.5 86.2-49.7 86.2-16.3 0-32.9 4.6-48.2-2.2-12.4-5.6-23.7-13.7-32.7-23.7-13.1-14.6-21.3-33.3-21.3-54.5z"/>
			<path id="&lt;Path&gt;" class="s0" d="m142.8 180.2c0-22 30.6-33.6 49.3-33.6 14.9 0 34.8 15.8 36.8 30.2 3.1 21.7-0.8 48.9-28.1 48.9-9.3 0-18.7 2.7-27.3-1.2-7.1-3.2-13.5-7.8-18.6-13.4-7.4-8.3-12.1-19-12.1-30.9z"/>
			<path id="&lt;Path&gt;" class="s2" d="m169.5 184.1c0-8.5 11.8-12.9 19-12.9 5.8 0 13.5 6.1 14.2 11.6 1.2 8.4-0.3 18.9-10.8 18.9-3.6 0-7.2 1-10.5-0.5-2.8-1.2-5.2-3-7.2-5.2-2.9-3.2-4.7-7.3-4.7-11.9z"/>
			<path id="&lt;Path&gt;" class="s2" d="m175.6 159.3c0-3.2 4.4-4.9 7.1-4.9 2.2 0 5.1 2.3 5.4 4.4 0.5 3.2-0.1 7.2-4.1 7.2-1.3 0-2.7 0.3-4-0.2-1-0.5-1.9-1.1-2.7-2-1.1-1.2-1.7-2.7-1.7-4.5z"/>
			<path id="&lt;Path&gt;" class="s2" d="m195.1 160.8c0-3.2 4.5-4.9 7.2-4.9 2.2 0 5.1 2.3 5.4 4.4 0.4 3.2-0.2 7.2-4.1 7.2-1.4 0-2.8 0.4-4-0.2-1.1-0.5-2-1.1-2.7-2-1.1-1.2-1.8-2.7-1.8-4.5z"/>
			<path id="&lt;Path&gt;" class="s2" d="m208.4 174.1c0-3.2 4.5-4.8 7.2-4.8 2.2 0 5.1 2.3 5.4 4.4 0.4 3.1-0.1 7.1-4.1 7.1-1.4 0-2.7 0.4-4-0.2-1-0.5-2-1.1-2.7-1.9-1.1-1.3-1.8-2.8-1.8-4.6z"/>
			<path id="&lt;Path&gt;" class="s2" d="m208.2 190.7c0-3.2 4.5-4.9 7.2-4.9 2.2 0 5.1 2.3 5.4 4.4 0.4 3.2-0.2 7.1-4.1 7.1-1.4 0-2.8 0.4-4-0.1-1.1-0.5-2-1.2-2.7-2-1.1-1.2-1.8-2.8-1.8-4.5z"/>
			<path id="&lt;Path&gt;" class="s2" d="m205.6 208.1c0-3.2 4.5-4.9 7.2-4.9 2.2 0 5.1 2.3 5.4 4.4 0.4 3.2-0.1 7.1-4.1 7.1-1.4 0-2.7 0.4-4-0.1-1-0.5-2-1.2-2.7-2-1.1-1.2-1.8-2.8-1.8-4.5z"/>
			<path id="&lt;Path&gt;" class="s2" d="m189.3 213.9c0-3.2 4.5-4.9 7.2-4.9 2.2 0 5.1 2.3 5.4 4.4 0.4 3.2-0.2 7.1-4.1 7.1-1.4 0-2.8 0.4-4-0.1-1.1-0.5-2-1.2-2.7-2-1.1-1.2-1.8-2.8-1.8-4.5z"/>
			<path id="&lt;Path&gt;" class="s2" d="m171 212.2c0-3.2 4.5-4.9 7.2-4.9 2.2 0 5.1 2.3 5.4 4.4 0.4 3.2-0.1 7.1-4.1 7.1-1.4 0-2.7 0.4-4-0.2-1-0.4-2-1.1-2.7-1.9-1.1-1.2-1.8-2.8-1.8-4.5z"/>
			<path id="&lt;Path&gt;" class="s2" d="m157.3 200.8c0-3.2 4.4-4.9 7.2-4.9 2.1 0 5.1 2.3 5.4 4.4 0.4 3.2-0.2 7.1-4.2 7.1-1.3 0-2.7 0.4-3.9-0.1-1.1-0.5-2-1.2-2.7-2-1.1-1.2-1.8-2.8-1.8-4.5z"/>
			<path id="&lt;Path&gt;" class="s2" d="m150.6 182.5c0-3.2 4.5-4.9 7.2-4.9 2.2 0 5.1 2.3 5.4 4.4 0.4 3.2-0.1 7.2-4.1 7.2-1.4 0-2.7 0.4-4-0.2-1-0.5-2-1.1-2.7-2-1.1-1.2-1.8-2.7-1.8-4.5z"/>
			<path id="&lt;Path&gt;" class="s2" d="m157.7 166.2c0-3.2 4.5-4.9 7.2-4.9 2.2 0 5.1 2.3 5.4 4.4 0.4 3.2-0.1 7.1-4.1 7.1-1.4 0-2.8 0.4-4-0.1-1-0.5-2-1.2-2.7-2-1.1-1.2-1.8-2.8-1.8-4.5z"/>
			<path id="&lt;Path&gt;" class="s0" d="m164.8 132.5c0-5.1 7.1-7.7 11.5-7.7 3.4 0 8 3.6 8.5 7 0.7 5-0.2 11.3-6.5 11.3-2.2 0-4.4 0.6-6.4-0.3-1.6-0.7-3.1-1.8-4.3-3.1-1.7-1.9-2.8-4.4-2.8-7.2z"/>
			<path id="&lt;Path&gt;" class="s0" d="m192.3 130.8c0-5.1 7.1-7.8 11.5-7.8 3.4 0 8.1 3.7 8.5 7.1 0.7 5-0.2 11.3-6.5 11.3-2.2 0-4.3 0.6-6.4-0.3-1.6-0.7-3.1-1.8-4.3-3.1-1.7-1.9-2.8-4.4-2.8-7.2z"/>
			<path id="&lt;Path&gt;" class="s0" d="m217.3 143.3c0-5.1 7.1-7.8 11.4-7.8 3.5 0 8.1 3.7 8.6 7 0.7 5.1-0.2 11.4-6.6 11.4-2.1 0-4.3 0.6-6.3-0.3-1.7-0.7-3.1-1.8-4.3-3.1-1.8-2-2.8-4.4-2.8-7.2z"/>
			<path id="&lt;Path&gt;" class="s0" d="m230.2 163.9c0-5.1 7.1-7.8 11.4-7.8 3.5 0 8.1 3.7 8.6 7.1 0.7 5-0.2 11.3-6.6 11.3-2.1 0-4.3 0.6-6.3-0.3-1.7-0.7-3.1-1.8-4.3-3.1-1.8-1.9-2.8-4.4-2.8-7.2z"/>
			<path id="&lt;Path&gt;" class="s0" d="m235.8 192.7c0-5.1 7.1-7.8 11.4-7.8 3.5 0 8.1 3.7 8.6 7.1 0.7 5-0.2 11.3-6.6 11.3-2.1 0-4.3 0.6-6.3-0.3-1.7-0.7-3.2-1.8-4.3-3.1-1.8-1.9-2.8-4.4-2.8-7.2z"/>
			<path id="&lt;Path&gt;" class="s0" d="m228.4 218.1c0-5.1 7.1-7.8 11.5-7.8 3.4 0 8.1 3.7 8.6 7 0.7 5.1-0.3 11.4-6.6 11.4-2.1 0-4.3 0.6-6.3-0.3-1.7-0.7-3.2-1.8-4.3-3.1-1.8-1.9-2.9-4.4-2.9-7.2z"/>
			<path id="&lt;Path&gt;" class="s0" d="m207.4 234.4c0-5.1 7.1-7.7 11.4-7.7 3.5 0 8.1 3.6 8.6 7 0.7 5-0.2 11.3-6.6 11.3-2.1 0-4.3 0.6-6.3-0.3-1.7-0.7-3.1-1.8-4.3-3.1-1.7-1.9-2.8-4.4-2.8-7.2z"/>
			<path id="&lt;Path&gt;" class="s0" d="m207.4 234.4c0-5.1 7.1-7.7 11.4-7.7 3.5 0 8.1 3.6 8.6 7 0.7 5-0.2 11.3-6.6 11.3-2.1 0-4.3 0.6-6.3-0.3-1.7-0.7-3.1-1.8-4.3-3.1-1.7-1.9-2.8-4.4-2.8-7.2z"/>
			<path id="&lt;Path&gt;" class="s0" d="m70.4 227.7c0-5.3 7.4-8.1 12-8.1 3.6 0 8.4 3.8 8.9 7.3 0.7 5.2-0.2 11.8-6.8 11.8-2.3 0-4.6 0.7-6.7-0.3-1.7-0.8-3.2-1.9-4.4-3.2-1.8-2-3-4.6-3-7.5z"/>
			<path id="&lt;Path&gt;" class="s0" d="m94.3 261.4c0-5.3 7.4-8.1 11.9-8.1 3.6 0 8.4 3.8 8.9 7.3 0.8 5.3-0.2 11.8-6.8 11.8-2.2 0-4.5 0.7-6.6-0.3-1.7-0.7-3.3-1.8-4.5-3.2-1.8-2-2.9-4.6-2.9-7.5z"/>
			<path id="&lt;Path&gt;" class="s0" d="m132.6 285.9c0-5.3 7.4-8.1 11.9-8.1 3.6 0 8.4 3.8 8.9 7.3 0.7 5.3-0.2 11.9-6.8 11.9-2.2 0-4.5 0.6-6.6-0.3-1.7-0.8-3.3-1.9-4.5-3.3-1.8-2-2.9-4.5-2.9-7.5z"/>
			<path id="&lt;Path&gt;" class="s0" d="m168.9 297.1c0-5.3 7.4-8.1 11.9-8.1 3.6 0 8.4 3.8 8.9 7.3 0.8 5.3-0.2 11.9-6.8 11.9-2.2 0-4.5 0.6-6.6-0.3-1.7-0.8-3.3-1.9-4.5-3.3-1.8-2-2.9-4.6-2.9-7.5z"/>
			<path id="&lt;Path&gt;" class="s0" d="m217.3 296.3c0-5.4 7.4-8.2 11.9-8.2 3.6 0 8.4 3.9 8.9 7.4 0.8 5.2-0.2 11.8-6.8 11.8-2.2 0-4.5 0.6-6.6-0.3-1.7-0.8-3.3-1.9-4.5-3.2-1.8-2.1-2.9-4.6-2.9-7.5z"/>
			<path id="&lt;Path&gt;" class="s0" d="m284.3 249.8c0-5.3 7.4-8.1 12-8.1 3.6 0 8.4 3.8 8.9 7.3 0.7 5.3-0.2 11.9-6.8 11.9-2.3 0-4.5 0.6-6.6-0.3-1.8-0.8-3.3-1.9-4.5-3.3-1.8-2-3-4.6-3-7.5z"/>
			<path id="&lt;Path&gt;" class="s0" d="m299.8 215.7c0-5.4 7.4-8.2 11.9-8.2 3.6 0 8.5 3.9 9 7.4 0.7 5.2-0.2 11.8-6.8 11.8-2.3 0-4.6 0.6-6.7-0.3-1.7-0.8-3.2-1.9-4.5-3.3-1.8-2-2.9-4.5-2.9-7.4z"/>
			<path id="&lt;Path&gt;" class="s0" d="m262.8 285.1c0-5.3 7.4-8.1 12-8.1 3.6 0 8.4 3.8 8.9 7.3 0.7 5.2-0.2 11.8-6.8 11.8-2.3 0-4.5 0.7-6.6-0.3-1.8-0.7-3.3-1.9-4.5-3.2-1.8-2-3-4.6-3-7.5z"/>
			<path id="&lt;Path&gt;" class="s2" d="m130 43.2c-3.5 2.4-5.7 9.4-2.1 13.3 2 2.2 2.7 4.1 5.9 4.7 17 3.3 13.9-26.6-3.8-18z"/>
			<path id="&lt;Path&gt;" class="s2" d="m157.5 37.6c-3.5 2.4-5.7 9.5-2.1 13.3 2 2.2 2.7 4.1 6 4.7 17 3.3 13.8-26.6-3.9-18z"/>
			<path id="&lt;Path&gt;" class="s2" d="m184.6 32.5c-3.5 2.3-5.7 9.4-2.1 13.3 2 2.2 2.7 4 5.9 4.6 17.1 3.3 13.9-26.5-3.8-17.9z"/>
			<path id="&lt;Path&gt;" class="s2" d="m208.2 34.6c-3.4 2.4-5.6 9.4-2.1 13.3 2 2.2 2.8 4.1 6 4.7 17 3.3 13.8-26.6-3.9-18z"/>
			<path id="&lt;Path&gt;" class="s2" d="m237.5 38.5c-3.5 2.3-5.7 9.4-2.2 13.3 2.1 2.2 2.8 4 6 4.7 17 3.2 13.9-26.6-3.8-18z"/>
			<path id="&lt;Path&gt;" class="s2" d="m265 51.4c-3.5 2.3-5.7 9.4-2.1 13.3 2 2.2 2.7 4 5.9 4.7 17.1 3.2 13.9-26.6-3.8-18z"/>
			<path id="&lt;Path&gt;" class="s2" d="m286.9 71.6c-3.4 2.3-5.6 9.4-2.1 13.3 2 2.2 2.7 4.1 6 4.7 17 3.2 13.8-26.6-3.9-18z"/>
			<path id="&lt;Path&gt;" class="s2" d="m311.9 94.8c-3.5 2.4-5.7 9.4-2.2 13.3 2.1 2.2 2.8 4.1 6 4.7 17 3.2 13.9-26.6-3.8-18z"/>
			<path id="&lt;Path&gt;" class="s2" d="m325.2 121.5c-3.5 2.3-5.7 9.4-2.1 13.3 2 2.2 2.7 4 5.9 4.6 17.1 3.3 13.9-26.5-3.8-17.9z"/>
			<path id="&lt;Path&gt;" class="s2" d="m334.2 150.7c-3.4 2.4-5.6 9.4-2.1 13.3 2 2.2 2.7 4.1 6 4.7 17 3.2 13.8-26.6-3.9-18z"/>
			<path id="&lt;Path&gt;" class="s2" d="m336 180c-3.5 2.3-5.7 9.4-2.2 13.2 2 2.3 2.8 4.1 6 4.7 17 3.3 13.8-26.5-3.8-17.9z"/>
			<path id="&lt;Path&gt;" class="s2" d="m334.7 209.6c-3.5 2.4-5.7 9.4-2.2 13.3 2.1 2.2 2.8 4.1 6 4.7 17 3.3 13.9-26.6-3.8-18z"/>
			<path id="&lt;Path&gt;" class="s2" d="m329.9 238c-3.5 2.3-5.6 9.4-2.1 13.3 2 2.2 2.7 4.1 6 4.7 17 3.2 13.8-26.6-3.9-18z"/>
			<path id="&lt;Path&gt;" class="s2" d="m322.6 262.5c-3.5 2.4-5.7 9.4-2.1 13.3 2 2.2 2.7 4.1 6 4.7 17 3.2 13.8-26.6-3.9-18z"/>
			<path id="&lt;Path&gt;" class="s2" d="m285.6 306c-3.4 2.3-5.6 9.4-2.1 13.2 2 2.3 2.8 4.1 6 4.7 17 3.3 13.8-26.6-3.9-17.9z"/>
			<path id="&lt;Path&gt;" class="s2" d="m304.8 288.8c-3.5 2.3-5.7 9.4-2.2 13.2 2.1 2.3 2.8 4.1 6 4.7 17 3.3 13.9-26.5-3.8-17.9z"/>
			<path id="&lt;Path&gt;" class="s2" d="m257.1 315.8c-3.5 2.4-5.7 9.4-2.2 13.3 2.1 2.2 2.8 4.1 6 4.7 17 3.3 13.9-26.6-3.8-18z"/>
			<path id="&lt;Path&gt;" class="s2" d="m227.2 319.3c-3.5 2.3-5.7 9.4-2.1 13.3 2 2.2 2.7 4 5.9 4.6 17.1 3.3 13.9-26.5-3.8-17.9z"/>
			<path id="&lt;Path&gt;" class="s2" d="m197.3 322.7c-3.4 2.3-5.6 9.4-2.1 13.3 2 2.2 2.7 4.1 6 4.7 17 3.2 13.8-26.6-3.9-18z"/>
			<path id="&lt;Path&gt;" class="s2" d="m172.8 321.9c-3.4 2.3-5.6 9.4-2.1 13.2 2 2.3 2.8 4.1 6 4.7 17 3.3 13.8-26.6-3.9-17.9z"/>
			<path id="&lt;Path&gt;" class="s2" d="m148.8 317.8c-3.5 2.3-5.7 9.4-2.2 13.3 2.1 2.2 2.8 4 6 4.6 17 3.3 13.9-26.5-3.8-17.9z"/>
			<path id="&lt;Path&gt;" class="s2" d="m122.3 309c-3.4 2.3-5.6 9.4-2.1 13.2 2 2.3 2.8 4.1 6 4.7 17 3.3 13.8-26.6-3.9-17.9z"/>
			<path id="&lt;Path&gt;" class="s2" d="m101.5 295.2c-3.5 2.3-5.7 9.4-2.1 13.3 2 2.2 2.7 4 6 4.7 17 3.2 13.8-26.6-3.9-18z"/>
			<path id="&lt;Path&gt;" class="s2" d="m78.3 277.4c-3.5 2.3-5.7 9.4-2.1 13.3 2 2.2 2.7 4 5.9 4.6 17.1 3.3 13.9-26.5-3.8-17.9z"/>
			<path id="&lt;Path&gt;" class="s2" d="m55.1 258.5c-3.5 2.3-5.7 9.4-2.2 13.2 2.1 2.3 2.8 4.1 6 4.7 17 3.3 13.9-26.6-3.8-17.9z"/>
			<path id="&lt;Path&gt;" class="s2" d="m43 234.4c-3.4 2.3-5.6 9.4-2.1 13.2 2 2.3 2.7 4.1 6 4.7 17 3.3 13.8-26.5-3.9-17.9z"/>
			<path id="&lt;Path&gt;" class="s2" d="m30.1 206.8c-3.5 2.4-5.6 9.4-2.1 13.3 2 2.2 2.7 4.1 6 4.7 17 3.3 13.8-26.6-3.9-18z"/>
			<path id="&lt;Path&gt;" class="s2" d="m25.8 178.5c-3.5 2.3-5.7 9.4-2.1 13.2 2 2.3 2.7 4.1 6 4.7 17 3.3 13.8-26.6-3.9-17.9z"/>
			<path id="&lt;Path&gt;" class="s2" d="m25 146.6c-3.5 2.4-5.7 9.4-2.2 13.3 2.1 2.2 2.8 4.1 6 4.7 17 3.2 13.9-26.6-3.8-18z"/>
			<path id="&lt;Path&gt;" class="s2" d="m36.2 113.1c-3.5 2.3-5.7 9.4-2.2 13.3 2.1 2.2 2.8 4 6 4.6 17 3.3 13.8-26.5-3.8-17.9z"/>
			<path id="&lt;Path&gt;" class="s2" d="m53.4 89.8c-3.5 2.4-5.7 9.5-2.2 13.3 2.1 2.3 2.8 4.1 6 4.7 17 3.3 13.9-26.6-3.8-18z"/>
			<path id="&lt;Path&gt;" class="s2" d="m79.2 70.9c-3.5 2.4-5.7 9.4-2.2 13.3 2.1 2.2 2.8 4.1 6 4.7 17 3.2 13.9-26.6-3.8-18z"/>
			<path id="&lt;Path&gt;" class="s2" d="m102.4 55.4c-3.5 2.4-5.7 9.4-2.1 13.3 2 2.2 2.7 4.1 5.9 4.7 17 3.3 13.9-26.6-3.8-18z"/>
			<path id="&lt;Path&gt;" class="s0" d="m300.2 167.3c0-5.3 7.4-8.1 12-8.1 3.6 0 8.4 3.8 8.9 7.3 0.7 5.3-0.2 11.9-6.8 11.9-2.3 0-4.5 0.6-6.6-0.3-1.8-0.8-3.3-1.9-4.5-3.3-1.8-2-3-4.6-3-7.5z"/>
			<path id="&lt;Path&gt;" class="s0" d="m288 131.9c0-5.4 7.4-8.2 11.9-8.2 3.6 0 8.5 3.9 9 7.4 0.7 5.2-0.3 11.8-6.9 11.8-2.2 0-4.5 0.6-6.6-0.3-1.7-0.8-3.2-1.9-4.5-3.2-1.8-2.1-2.9-4.6-2.9-7.5z"/>
			<path id="&lt;Path&gt;" class="s0" d="m264.3 102.6c0-5.3 7.5-8.1 12-8.1 3.6 0 8.4 3.8 8.9 7.3 0.7 5.3-0.2 11.9-6.8 11.9-2.3 0-4.5 0.6-6.6-0.3-1.7-0.8-3.3-1.9-4.5-3.3-1.8-2-3-4.6-3-7.5z"/>
			<path id="&lt;Path&gt;" class="s0" d="m224.8 80.7c0-5.3 7.4-8.1 11.9-8.1 3.6 0 8.5 3.8 8.9 7.3 0.8 5.3-0.2 11.8-6.8 11.8-2.2 0-4.5 0.7-6.6-0.3-1.7-0.7-3.3-1.8-4.5-3.2-1.8-2-2.9-4.6-2.9-7.5z"/>
			<path id="&lt;Path&gt;" class="s0" d="m183.9 71.2c0-5.3 7.4-8.1 12-8.1 3.6 0 8.4 3.8 8.9 7.3 0.7 5.3-0.2 11.9-6.8 11.9-2.3 0-4.5 0.6-6.6-0.3-1.8-0.8-3.3-1.9-4.5-3.3-1.8-2-3-4.6-3-7.5z"/>
			<path id="&lt;Path&gt;" class="s0" d="m136.6 80.7c0-5.3 7.4-8.1 12-8.1 3.6 0 8.4 3.8 8.9 7.3 0.7 5.3-0.2 11.8-6.8 11.8-2.3 0-4.5 0.7-6.6-0.3-1.8-0.7-3.3-1.8-4.5-3.2-1.8-2-3-4.6-3-7.5z"/>
			<path id="&lt;Path&gt;" class="s0" d="m95.4 100.1c0-5.4 7.4-8.2 11.9-8.2 3.6 0 8.4 3.8 8.9 7.4 0.8 5.2-0.2 11.8-6.8 11.8-2.2 0-4.5 0.6-6.6-0.3-1.7-0.8-3.3-1.9-4.5-3.3-1.8-2-2.9-4.5-2.9-7.4z"/>
			<path id="&lt;Path&gt;" class="s0" d="m69.1 123.9c0-5.3 7.5-8.1 12-8.1 3.6 0 8.4 3.8 8.9 7.3 0.7 5.3-0.2 11.8-6.8 11.8-2.3 0-4.5 0.7-6.6-0.3-1.7-0.7-3.3-1.8-4.5-3.2-1.8-2-3-4.6-3-7.5z"/>
			<path id="&lt;Path&gt;" class="s0" d="m55 152.7c0-5.3 7.4-8.1 11.9-8.1 3.6 0 8.4 3.8 8.9 7.3 0.8 5.3-0.2 11.8-6.8 11.8-2.2 0-4.5 0.7-6.6-0.3-1.7-0.7-3.3-1.8-4.5-3.2-1.8-2-2.9-4.6-2.9-7.5z"/>
			<path id="&lt;Path&gt;" class="s0" d="m57.1 189.7c0-5.3 7.4-8.1 11.9-8.1 3.6 0 8.5 3.8 9 7.3 0.7 5.2-0.2 11.8-6.8 11.8-2.3 0-4.6 0.7-6.7-0.3-1.7-0.7-3.2-1.9-4.5-3.2-1.8-2-2.9-4.6-2.9-7.5z"/>
			<path id="&lt;Path&gt;" class="s0" d="m178.1 240c0-5.1 7.1-7.8 11.5-7.8 3.4 0 8.1 3.7 8.5 7.1 0.7 5-0.2 11.3-6.5 11.3-2.2 0-4.3 0.6-6.3-0.3-1.7-0.7-3.2-1.8-4.4-3.1-1.7-1.9-2.8-4.4-2.8-7.2z"/>
			<path id="&lt;Path&gt;" class="s0" d="m178.1 240c0-5.1 7.1-7.8 11.5-7.8 3.4 0 8.1 3.7 8.5 7.1 0.7 5-0.2 11.3-6.5 11.3-2.2 0-4.3 0.6-6.3-0.3-1.7-0.7-3.2-1.8-4.4-3.1-1.7-1.9-2.8-4.4-2.8-7.2z"/>
			<path id="&lt;Path&gt;" class="s0" d="m152.3 233.6c0-5.1 7.1-7.8 11.5-7.8 3.4 0 8.1 3.7 8.5 7 0.7 5.1-0.2 11.4-6.5 11.4-2.2 0-4.3 0.6-6.3-0.3-1.7-0.8-3.2-1.8-4.4-3.1-1.7-2-2.8-4.4-2.8-7.2z"/>
			<path id="&lt;Path&gt;" class="s0" d="m152.3 233.6c0-5.1 7.1-7.8 11.5-7.8 3.4 0 8.1 3.7 8.5 7 0.7 5.1-0.2 11.4-6.5 11.4-2.2 0-4.3 0.6-6.3-0.3-1.7-0.8-3.2-1.8-4.4-3.1-1.7-2-2.8-4.4-2.8-7.2z"/>
			<path id="&lt;Path&gt;" class="s0" d="m130.8 219.4c0-5.1 7.1-7.8 11.5-7.8 3.4 0 8.1 3.7 8.5 7 0.7 5.1-0.2 11.4-6.5 11.4-2.2 0-4.3 0.6-6.3-0.3-1.7-0.7-3.2-1.8-4.4-3.1-1.7-1.9-2.8-4.4-2.8-7.2z"/>
			<path id="&lt;Path&gt;" class="s0" d="m119.2 196.2c0-5.1 7.1-7.8 11.5-7.8 3.4 0 8.1 3.6 8.5 7 0.7 5.1-0.2 11.4-6.5 11.4-2.2 0-4.3 0.6-6.4-0.3-1.6-0.8-3.1-1.8-4.3-3.1-1.7-2-2.8-4.4-2.8-7.2z"/>
			<path id="&lt;Path&gt;" class="s0" d="m119.2 196.2c0-5.1 7.1-7.8 11.5-7.8 3.4 0 8.1 3.6 8.5 7 0.7 5.1-0.2 11.4-6.5 11.4-2.2 0-4.3 0.6-6.4-0.3-1.6-0.8-3.1-1.8-4.3-3.1-1.7-2-2.8-4.4-2.8-7.2z"/>
			<path id="&lt;Path&gt;" class="s0" d="m117.9 168.2c0-5.1 7.1-7.8 11.5-7.8 3.4 0 8.1 3.7 8.5 7.1 0.7 5-0.2 11.3-6.5 11.3-2.1 0-4.3 0.6-6.3-0.3-1.7-0.7-3.2-1.8-4.4-3.1-1.7-1.9-2.8-4.4-2.8-7.2z"/>
			<path id="&lt;Path&gt;" class="s0" d="m136 145.4c0-5.1 7.1-7.7 11.4-7.7 3.5 0 8.1 3.6 8.6 7 0.7 5-0.2 11.3-6.5 11.3-2.2 0-4.4 0.6-6.4-0.3-1.6-0.7-3.1-1.8-4.3-3.1-1.7-1.9-2.8-4.4-2.8-7.2z"/>
		</g>
	</g>
</svg>