<svg width="416" height="594" viewBox="0 0 416 594" fill="none" xmlns="http://www.w3.org/2000/svg">
<path d="M415.6 0H0V294.2H415.6V0Z" fill="#3B56A6"/>
<path d="M415.6 0.0999756H0.199951V77.5H415.6V0.0999756Z" fill="#008843"/>
<path d="M415.6 216.7H0V293.7H415.6V216.7Z" fill="#008843"/>
<path d="M415.6 216.7H0V230H415.6V216.7Z" fill="#020403"/>
<path d="M415.6 64.2H0V77.5H415.6V64.2Z" fill="#020403"/>
<path d="M207.3 128.7L211.1 140.3H223.3L213.4 147.4L217.2 159L207.3 151.9L197.4 159L201.2 147.4L191.3 140.3H203.5L207.3 128.7Z" fill="white"/>
<path d="M267.7 120.7C267.7 120.7 259.7 82 213.6 82L207.9 101.9L202.2 82C156.1 82 148.1 120.7 148.1 120.7C139.8 158.3 163.5 187.2 163.5 187.2L148.1 213.5L188.3 188.3C188.3 188.3 189 157.2 189 141.1C189 126.2 205.2 125.7 207.7 125.7C207.7 125.7 207.8 125.7 207.9 125.7C208 125.7 208.1 125.7 208.1 125.7C210.6 125.7 226.8 126.2 226.8 141.1C226.8 157.2 227.5 188.3 227.5 188.3L267.7 213.5L252.3 187.2C252.3 187.2 276 158.3 267.7 120.7Z" fill="white"/>
<path d="M416 316H0V454.635H416V316Z" fill="#010101"/>
<path d="M416 454.635H0V593.27H416V454.635Z" fill="#DB2E33"/>
<path d="M207.953 523.575C246.027 523.575 276.893 492.71 276.893 454.635C276.893 416.561 246.027 385.695 207.953 385.695C169.878 385.695 139.013 416.561 139.013 454.635C139.013 492.71 169.878 523.575 207.953 523.575Z" fill="#FEDA00"/>
</svg>
