<?xml version="1.0" encoding="UTF-8" standalone="no"?>
<!-- Created with Inkscape (http://www.inkscape.org/) -->

<svg
   version="1.1"
   id="svg2"
   width="1333.3333"
   height="866.66669"
   viewBox="0 0 1333.3333 866.66669"
   sodipodi:docname="aborg14.eps"
   xmlns:inkscape="http://www.inkscape.org/namespaces/inkscape"
   xmlns:sodipodi="http://sodipodi.sourceforge.net/DTD/sodipodi-0.dtd"
   xmlns="http://www.w3.org/2000/svg"
   xmlns:svg="http://www.w3.org/2000/svg">
  <defs
     id="defs6" />
  <sodipodi:namedview
     id="namedview4"
     pagecolor="#ffffff"
     bordercolor="#000000"
     borderopacity="0.25"
     inkscape:showpageshadow="2"
     inkscape:pageopacity="0.0"
     inkscape:pagecheckerboard="0"
     inkscape:deskcolor="#d1d1d1" />
  <g
     id="g8"
     inkscape:groupmode="layer"
     inkscape:label="ink_ext_XXXXXX"
     transform="matrix(1.3333333,0,0,-1.3333333,0,866.66667)">
    <g
       id="g10"
       transform="scale(0.1)">
      <path
         d="M 10000,0 H 0 V 6500 H 10000 V 0"
         style="fill:#ffffff;fill-opacity:1;fill-rule:evenodd;stroke:none"
         id="path12" />
      <path
         d="m 5000.39,5529.97 c -3206.98,239.93 -2926.9,-4733.251 0,-4563.638 v 761.098 c -1950.94,-112.76 -2137.61,3202.11 0,3042.46 z M 6863.78,4494.79 c -302.02,320.26 -584.68,745.05 -1080.51,888.74 -281.07,81.48 -541.62,128.39 -782.88,146.44 v -760.08 c 160.91,-12.02 334.69,-43.29 522.18,-97.64 330.55,-95.79 519.01,-378.99 720.33,-592.5 642.67,-681.49 142.52,-1964.69 -709.9,-2246.56 -190.08,-62.87 -367.48,-96.21 -532.61,-105.76 V 966.332 c 247.58,14.359 513.55,64.378 798.53,158.618 1278.64,422.82 2028.84,2347.6 1064.86,3369.84"
         style="fill:#e6a012;fill-opacity:1;fill-rule:evenodd;stroke:none"
         id="path14" />
      <path
         d="m 6112.36,3992.49 c -180.18,191.06 -348.81,444.48 -644.61,530.2 -2585.26,749.46 -2321.6,-3311.38 9.34,-2540.58 762.79,252.25 1210.35,1400.53 635.27,2010.38"
         style="fill:#e6a012;fill-opacity:1;fill-rule:evenodd;stroke:none"
         id="path16" />
      <path
         d="m 5729.05,3736.26 c -118.03,125.16 -228.48,291.16 -422.25,347.3 -1693.49,490.95 -1520.77,-2169.14 6.13,-1664.22 499.67,165.26 792.84,917.43 416.12,1316.92"
         style="fill:#211d1d;fill-opacity:1;fill-rule:evenodd;stroke:none"
         id="path18" />
      <path
         d="m 5424.1,3532.41 c -68.57,72.72 -132.75,169.16 -245.34,201.79 -983.99,285.25 -883.64,-1260.36 3.55,-966.97 290.33,96.01 460.69,533.06 241.79,765.18"
         style="fill:#ffffff;fill-opacity:1;fill-rule:evenodd;stroke:none"
         id="path20" />
      <path
         d="m 5191.86,3377.15 c -30.91,32.79 -59.85,76.28 -110.63,90.99 -443.66,128.62 -398.41,-568.26 1.61,-435.99 130.92,43.29 207.72,240.35 109.02,345"
         style="fill:#211d1d;fill-opacity:1;fill-rule:evenodd;stroke:none"
         id="path22" />
      <path
         d="m 4835.43,3623.97 c -11.58,12.3 -22.44,28.61 -41.47,34.12 -166.38,48.23 -149.41,-213.1 0.6,-163.5 49.1,16.24 77.88,90.13 40.87,129.38"
         style="fill:#f1531c;fill-opacity:1;fill-rule:evenodd;stroke:none"
         id="path24" />
      <path
         d="m 4835.43,3623.97 c -11.58,12.3 -22.44,28.61 -41.47,34.12 -166.38,48.23 -149.41,-213.1 0.6,-163.5 49.1,16.24 77.88,90.13 40.87,129.38"
         style="fill:#f1531c;fill-opacity:1;fill-rule:evenodd;stroke:none"
         id="path26" />
      <path
         d="m 3602.66,5009.57 c -6.69,7.09 -12.95,16.5 -23.94,19.69 -96.04,27.84 -86.24,-123.01 0.34,-94.38 28.33,9.38 44.96,52.03 23.6,74.69"
         style="fill:#211d1d;fill-opacity:1;fill-rule:evenodd;stroke:none"
         id="path28" />
      <path
         d="m 5015.98,5158.45 c -1.42,9.65 -1.15,20.96 -8.34,29.86 -62.67,77.9 -141.21,-51.28 -53.85,-77.5 28.59,-8.58 66.67,16.82 62.19,47.64 z m -3.48,-255.51 c -1.41,9.65 -1.13,20.97 -8.32,29.87 -62.68,77.9 -141.21,-51.28 -53.85,-77.49 28.59,-8.58 66.67,16.81 62.17,47.62 z m 4.09,491.85 c -1.41,9.65 -1.13,20.96 -8.31,29.86 -62.68,77.91 -141.21,-51.28 -53.85,-77.5 28.57,-8.57 66.67,16.82 62.16,47.64 v 0"
         style="fill:#211d1d;fill-opacity:1;fill-rule:evenodd;stroke:none"
         id="path30" />
      <path
         d="m 6167.9,4718.23 c 4.43,8.68 11.21,17.74 10.52,29.15 -5.91,99.82 -144.77,40.08 -88.8,-31.92 18.32,-23.56 64.09,-24.95 78.28,2.77 z m -150.95,-206.17 c 4.43,8.68 11.21,17.73 10.54,29.16 -5.92,99.81 -144.8,40.07 -88.81,-31.94 18.31,-23.55 64.07,-24.94 78.27,2.78 z m 288.47,398.38 c 4.45,8.69 11.23,17.73 10.54,29.16 -5.91,99.8 -144.77,40.07 -88.81,-31.93 18.31,-23.56 64.08,-24.95 78.27,2.77 v 0"
         style="fill:#211d1d;fill-opacity:1;fill-rule:evenodd;stroke:none"
         id="path32" />
      <path
         d="m 6896.78,3621.22 c 9.25,3.11 20.43,4.85 27.91,13.48 65.56,75.51 -75.47,129.89 -85.8,39.28 -3.37,-29.65 28.37,-62.64 57.89,-52.76 z m -252.07,-41.86 c 9.25,3.11 20.43,4.84 27.93,13.48 65.56,75.51 -75.49,129.89 -85.82,39.27 -3.38,-29.65 28.37,-62.64 57.89,-52.75 z m 484.79,83.14 c 9.25,3.1 20.43,4.84 27.91,13.47 65.58,75.51 -75.47,129.89 -85.8,39.28 -3.37,-29.65 28.37,-62.64 57.89,-52.75 v 0"
         style="fill:#211d1d;fill-opacity:1;fill-rule:evenodd;stroke:none"
         id="path34" />
      <path
         d="m 3301.37,2330.51 c -9.5,-2.22 -19.9,-6.63 -30.83,-3.24 -95.49,29.64 -4.26,150.16 52.26,78.58 18.48,-23.43 8.88,-68.18 -21.43,-75.34 z m 236.31,97.22 c -9.49,-2.23 -19.91,-6.64 -30.83,-3.25 -95.5,29.64 -4.26,150.16 52.25,78.58 18.49,-23.43 8.89,-68.18 -21.42,-75.33 z M 3081.83,2243 c -9.49,-2.25 -19.9,-6.66 -30.83,-3.25 -95.5,29.62 -4.27,150.16 52.25,78.58 18.5,-23.43 8.89,-68.18 -21.42,-75.33 v 0"
         style="fill:#211d1d;fill-opacity:1;fill-rule:evenodd;stroke:none"
         id="path36" />
      <path
         d="m 3086.1,3752.85 c -9.24,3.1 -20.42,4.83 -27.92,13.48 -65.55,75.5 75.5,129.88 85.82,39.26 3.37,-29.64 -28.37,-62.63 -57.9,-52.74 z m 252.07,-41.87 c -9.24,3.11 -20.43,4.83 -27.92,13.48 -65.56,75.5 75.5,129.88 85.81,39.26 3.38,-29.64 -28.36,-62.63 -57.89,-52.74 z m -484.79,83.14 c -9.24,3.1 -20.42,4.83 -27.91,13.48 -65.56,75.5 75.49,129.88 85.81,39.26 3.37,-29.64 -28.36,-62.63 -57.9,-52.74 v 0"
         style="fill:#211d1d;fill-opacity:1;fill-rule:evenodd;stroke:none"
         id="path38" />
      <path
         d="m 6735.21,2497.71 c 9.43,-2.56 19.67,-7.32 30.71,-4.32 96.47,26.31 9.48,149.93 -49.49,80.37 -19.3,-22.78 -11.25,-67.84 18.78,-76.05 z m -232.79,105.37 c 9.43,-2.56 19.69,-7.32 30.73,-4.32 96.45,26.3 9.46,149.93 -49.51,80.35 -19.28,-22.76 -11.25,-67.82 18.78,-76.03 z m 449.16,-200.48 c 9.41,-2.56 19.67,-7.32 30.71,-4.31 96.47,26.29 9.48,149.94 -49.49,80.36 -19.3,-22.78 -11.25,-67.84 18.78,-76.05 v 0"
         style="fill:#211d1d;fill-opacity:1;fill-rule:evenodd;stroke:none"
         id="path40" />
      <path
         d="m 5849.98,1561.05 c 6.42,-7.35 12.34,-16.99 23.19,-20.57 94.94,-31.39 90.77,119.72 3.17,94.33 -28.66,-8.33 -46.86,-50.33 -26.36,-73.76 z M 5714.2,1777.5 c 6.43,-7.32 12.35,-16.98 23.2,-20.55 94.94,-31.41 90.75,119.71 3.16,94.3 -28.65,-8.31 -46.85,-50.3 -26.36,-73.75 z m 263.55,-415.29 c 6.43,-7.35 12.34,-16.97 23.2,-20.57 94.93,-31.39 90.75,119.72 3.16,94.33 -28.66,-8.31 -46.86,-50.31 -26.36,-73.76 v 0"
         style="fill:#211d1d;fill-opacity:1;fill-rule:evenodd;stroke:none"
         id="path42" />
      <path
         d="m 4481.68,1398.26 c -0.18,-9.76 -2.3,-20.87 3.32,-30.83 49.1,-87.09 147.7,27.49 65.81,67.66 -26.8,13.14 -68.53,-5.7 -69.13,-36.83 z m 45.22,251.49 c -0.19,-9.75 -2.31,-20.87 3.32,-30.83 49.1,-87.09 147.69,27.49 65.8,67.66 -26.79,13.12 -68.52,-5.7 -69.12,-36.83 z m -84.49,-484.56 c -0.18,-9.75 -2.31,-20.85 3.32,-30.81 49.1,-87.11 147.69,27.49 65.81,67.64 -26.8,13.13 -68.53,-5.69 -69.13,-36.83 v 0"
         style="fill:#211d1d;fill-opacity:1;fill-rule:evenodd;stroke:none"
         id="path44" />
      <path
         d="m 3737.73,4815.62 c -6.69,7.1 -12.96,16.51 -23.95,19.69 -96.03,27.84 -86.24,-123 0.35,-94.37 28.34,9.37 44.96,52.02 23.6,74.68"
         style="fill:#211d1d;fill-opacity:1;fill-rule:evenodd;stroke:none"
         id="path46" />
      <path
         d="m 3881.46,4604.35 c -6.69,7.1 -12.96,16.51 -23.94,19.7 -96.04,27.84 -86.25,-123.01 0.34,-94.38 28.34,9.37 44.96,52.03 23.6,74.68"
         style="fill:#211d1d;fill-opacity:1;fill-rule:evenodd;stroke:none"
         id="path48" />
      <path
         d="m 2702.54,3505.51 c -7.34,-134.39 -4.75,-269.97 7.62,-404.86 204.46,-89.93 462.16,-106.18 769.68,-6.49 -14.38,117.69 -17.58,236.63 -9.36,353.98 -30.81,-17.76 -63.14,-32.45 -96.73,-43.55 -293.55,-97.07 -519.5,-36.14 -671.21,100.92"
         style="fill:#ffffff;fill-opacity:1;fill-rule:evenodd;stroke:none"
         id="path50" />
      <path
         d="m 2968.02,4504.39 c 127.09,-243.04 344.92,-432.16 646.54,-481.33 53.71,115.74 122.18,223.42 205.71,319.06 -345.61,-12.72 -560.52,224.95 -627.63,502.3 -86.36,-105.15 -161.18,-219.22 -224.62,-340.03"
         style="fill:#ffffff;fill-opacity:1;fill-rule:evenodd;stroke:none"
         id="path52" />
      <path
         d="m 3974.55,5402.23 c 11.19,-271.97 114.13,-543.55 302.24,-733.24 136.47,56.34 290.71,92.41 463.07,103.38 -303.02,96.96 -453.55,422.75 -431,723.39 -118.14,-22.83 -229.56,-54.31 -334.31,-93.53"
         style="fill:#ffffff;fill-opacity:1;fill-rule:evenodd;stroke:none"
         id="path54" />
      <path
         d="m 5579.51,5437.56 c -159.77,-195.73 -227.81,-462.1 -210.16,-725.18 50.04,-11.67 101.12,-25.03 153.22,-40.13 73.43,-21.28 139.85,-51.81 200.96,-88.77 -67.24,270.92 6.92,580.91 238.44,732.67 -56.45,26.45 -115.86,49.17 -178.7,67.38 -69.13,20.04 -137.06,38.03 -203.76,54.03"
         style="fill:#ffffff;fill-opacity:1;fill-rule:evenodd;stroke:none"
         id="path56" />
      <path
         d="m 6806.54,4556.83 c -292.02,-45.82 -493.72,-210.24 -610.53,-426.02 15.61,-17.37 31.22,-34.42 46.89,-51.06 79.98,-84.81 142.27,-178.94 188.37,-279.31 66.95,254.18 272,458.37 629.44,436.41 -55.35,90.82 -120.8,177.19 -196.93,257.94 -19.14,20.29 -38.2,41.01 -57.24,62.04"
         style="fill:#ffffff;fill-opacity:1;fill-rule:evenodd;stroke:none"
         id="path58" />
      <path
         d="m 6534.33,3271.12 c -4.05,-164.52 -37.36,-331.56 -95.2,-491.43 138.22,182.49 389.23,281.54 763.11,173.15 21.65,-6.28 41.91,-14.41 60.98,-24.01 20.98,112.13 33.6,224.92 37.22,336.98 -312.24,87.96 -566.73,78.85 -766.11,5.31"
         style="fill:#ffffff;fill-opacity:1;fill-rule:evenodd;stroke:none"
         id="path60" />
      <path
         d="m 6023.62,2120.89 c 143.47,-41.58 225.25,-164.48 312.63,-257.15 91.61,-97.15 129.72,-222.47 126.47,-351.32 103.25,90.49 198.97,191.37 286.04,300.25 -31.03,83.9 -78.06,162.28 -143.05,231.19 -109.01,115.61 -212.2,262.57 -367.64,344.65 -66.34,-96.43 -142.31,-185.56 -226.37,-264.23 3.97,-1.11 7.95,-2.24 11.92,-3.39"
         style="fill:#ffffff;fill-opacity:1;fill-rule:evenodd;stroke:none"
         id="path62" />
      <path
         d="m 4980.66,1725.67 c 173.86,-216.43 112.07,-549.46 -69.42,-764.049 130.78,3 267.08,16.442 408.79,41.299 114.42,250.92 135.71,541.12 16.4,774.28 -124.48,-29.57 -243.1,-46.29 -355.77,-51.53"
         style="fill:#ffffff;fill-opacity:1;fill-rule:evenodd;stroke:none"
         id="path64" />
      <path
         d="m 3387.48,1561.79 c 87.8,-89.73 183.79,-171.67 287.81,-244.21 233.21,116.96 414.39,350.05 498.03,607.03 -106.71,66.51 -201.75,147.32 -284.84,238.99 -23.43,-250.32 -196.85,-503.77 -432.06,-581.54 -23.41,-7.75 -46.38,-14.48 -68.94,-20.27"
         style="fill:#ffffff;fill-opacity:1;fill-rule:evenodd;stroke:none"
         id="path66" />
      <path
         d="m 4273.91,4358.59 c -47.21,-31.58 -77.04,-127.63 -28.96,-180.15 27.6,-30.15 37.29,-55.05 81.11,-63.43 230.73,-44.23 187.89,360.4 -52.15,243.58"
         style="fill:#211d1d;fill-opacity:1;fill-rule:evenodd;stroke:none"
         id="path68" />
      <path
         d="m 4273.91,4358.59 c -47.21,-31.58 -77.04,-127.63 -28.96,-180.15 27.6,-30.15 37.29,-55.05 81.11,-63.43 230.73,-44.23 187.89,360.4 -52.15,243.58"
         style="fill:#211d1d;fill-opacity:1;fill-rule:evenodd;stroke:none"
         id="path70" />
      <path
         d="m 4568.3,4455.57 c -47.22,-31.59 -77.04,-127.64 -28.96,-180.15 27.59,-30.16 37.29,-55.05 81.11,-63.44 230.73,-44.23 187.89,360.4 -52.15,243.59"
         style="fill:#211d1d;fill-opacity:1;fill-rule:evenodd;stroke:none"
         id="path72" />
      <path
         d="m 4959.65,4483.28 c -47.21,-31.6 -77.03,-127.64 -28.95,-180.16 27.58,-30.16 37.29,-55.04 81.11,-63.44 230.72,-44.22 187.89,360.42 -52.16,243.6"
         style="fill:#211d1d;fill-opacity:1;fill-rule:evenodd;stroke:none"
         id="path74" />
      <path
         d="m 5326.77,4431.33 c -47.21,-31.59 -77.03,-127.65 -28.96,-180.15 27.6,-30.17 37.29,-55.05 81.11,-63.45 230.73,-44.22 187.9,360.42 -52.15,243.6"
         style="fill:#211d1d;fill-opacity:1;fill-rule:evenodd;stroke:none"
         id="path76" />
      <path
         d="m 5641.94,4240.84 c -47.21,-31.59 -77.05,-127.63 -28.95,-180.15 27.59,-30.16 37.28,-55.05 81.1,-63.44 230.73,-44.22 187.9,360.41 -52.15,243.59"
         style="fill:#211d1d;fill-opacity:1;fill-rule:evenodd;stroke:none"
         id="path78" />
      <path
         d="m 5863.59,3970.7 c -47.21,-31.59 -77.03,-127.63 -28.95,-180.15 27.59,-30.16 37.28,-55.05 81.1,-63.45 230.73,-44.21 187.89,360.42 -52.15,243.6"
         style="fill:#211d1d;fill-opacity:1;fill-rule:evenodd;stroke:none"
         id="path80" />
      <path
         d="m 6012.51,3624.36 c -47.21,-31.59 -77.03,-127.64 -28.95,-180.15 27.6,-30.16 37.29,-55.05 81.11,-63.44 230.72,-44.22 187.89,360.41 -52.16,243.59"
         style="fill:#211d1d;fill-opacity:1;fill-rule:evenodd;stroke:none"
         id="path82" />
      <path
         d="m 6029.84,3295.34 c -47.22,-31.58 -77.04,-127.63 -28.96,-180.15 27.59,-30.14 37.29,-55.05 81.11,-63.44 230.72,-44.23 187.89,360.41 -52.15,243.59"
         style="fill:#211d1d;fill-opacity:1;fill-rule:evenodd;stroke:none"
         id="path84" />
      <path
         d="m 5981.35,2976.71 c -47.21,-31.58 -77.05,-127.63 -28.95,-180.14 27.58,-30.17 37.29,-55.05 81.09,-63.45 230.74,-44.21 187.89,360.4 -52.14,243.59"
         style="fill:#211d1d;fill-opacity:1;fill-rule:evenodd;stroke:none"
         id="path86" />
      <path
         d="m 5787.4,2640.76 c -47.22,-31.59 -77.04,-127.63 -28.97,-180.14 27.6,-30.16 37.29,-55.05 81.11,-63.44 230.73,-44.22 187.89,360.41 -52.14,243.58"
         style="fill:#211d1d;fill-opacity:1;fill-rule:evenodd;stroke:none"
         id="path88" />
      <path
         d="m 5493.01,2415.65 c -47.21,-31.58 -77.03,-127.63 -28.95,-180.16 27.6,-30.15 37.29,-55.05 81.11,-63.43 230.72,-44.23 187.89,360.4 -52.16,243.59"
         style="fill:#211d1d;fill-opacity:1;fill-rule:evenodd;stroke:none"
         id="path90" />
      <path
         d="m 5112.04,2290.97 c -47.21,-31.59 -77.03,-127.64 -28.95,-180.16 27.59,-30.14 37.28,-55.05 81.11,-63.42 230.72,-44.23 187.89,360.39 -52.16,243.58"
         style="fill:#211d1d;fill-opacity:1;fill-rule:evenodd;stroke:none"
         id="path92" />
      <path
         d="m 4744.93,2259.8 c -47.21,-31.58 -77.04,-127.65 -28.96,-180.15 27.59,-30.16 37.29,-55.06 81.11,-63.44 230.72,-44.23 187.89,360.4 -52.15,243.59"
         style="fill:#211d1d;fill-opacity:1;fill-rule:evenodd;stroke:none"
         id="path94" />
      <path
         d="m 4391.66,2339.45 c -47.21,-31.59 -77.04,-127.63 -28.95,-180.14 27.59,-30.16 37.29,-55.05 81.11,-63.44 230.72,-44.23 187.89,360.41 -52.16,243.58"
         style="fill:#211d1d;fill-opacity:1;fill-rule:evenodd;stroke:none"
         id="path96" />
      <path
         d="m 4114.6,2568.04 c -47.22,-31.59 -77.04,-127.64 -28.96,-180.14 27.58,-30.16 37.29,-55.07 81.11,-63.46 230.72,-44.21 187.89,360.41 -52.15,243.6"
         style="fill:#211d1d;fill-opacity:1;fill-rule:evenodd;stroke:none"
         id="path98" />
      <path
         d="m 4114.6,2568.04 c -47.22,-31.59 -77.04,-127.64 -28.96,-180.14 27.58,-30.16 37.29,-55.07 81.11,-63.46 230.72,-44.21 187.89,360.41 -52.15,243.6"
         style="fill:#211d1d;fill-opacity:1;fill-rule:evenodd;stroke:none"
         id="path100" />
      <path
         d="m 3917.19,2848.57 c -47.22,-31.59 -77.05,-127.64 -28.96,-180.16 27.59,-30.14 37.29,-55.05 81.1,-63.42 230.72,-44.23 187.89,360.39 -52.14,243.58"
         style="fill:#211d1d;fill-opacity:1;fill-rule:evenodd;stroke:none"
         id="path102" />
      <path
         d="m 3830.6,3226.08 c -47.21,-31.59 -77.03,-127.63 -28.96,-180.16 27.59,-30.15 37.29,-55.05 81.12,-63.43 230.71,-44.23 187.88,360.4 -52.16,243.59"
         style="fill:#211d1d;fill-opacity:1;fill-rule:evenodd;stroke:none"
         id="path104" />
      <path
         d="m 3823.67,3620.9 c -47.21,-31.59 -77.03,-127.64 -28.95,-180.15 27.59,-30.16 37.29,-55.05 81.11,-63.44 230.72,-44.23 187.89,360.41 -52.16,243.59"
         style="fill:#211d1d;fill-opacity:1;fill-rule:evenodd;stroke:none"
         id="path106" />
      <path
         d="m 3958.75,4050.35 c -47.21,-31.58 -77.04,-127.63 -28.97,-180.15 27.61,-30.15 37.3,-55.05 81.11,-63.43 230.73,-44.23 187.9,360.4 -52.14,243.58"
         style="fill:#211d1d;fill-opacity:1;fill-rule:evenodd;stroke:none"
         id="path108" />
      <path
         d="m 4370.98,3807.85 c -31.97,-21.4 -52.19,-86.46 -19.62,-122.03 18.7,-20.43 25.27,-37.29 54.95,-42.98 156.3,-29.96 127.28,244.15 -35.33,165.01"
         style="fill:#ffffff;fill-opacity:1;fill-rule:evenodd;stroke:none"
         id="path110" />
      <path
         d="m 4558,3956.78 c -31.98,-21.4 -52.18,-86.47 -19.62,-122.04 18.7,-20.43 25.27,-37.3 54.96,-42.98 156.28,-29.95 127.27,244.15 -35.34,165.02"
         style="fill:#ffffff;fill-opacity:1;fill-rule:evenodd;stroke:none"
         id="path112" />
      <path
         d="m 4786.58,4036.43 c -31.98,-21.4 -52.18,-86.46 -19.61,-122.04 18.69,-20.42 25.26,-37.28 54.93,-42.97 156.31,-29.96 127.3,244.14 -35.32,165.01"
         style="fill:#ffffff;fill-opacity:1;fill-rule:evenodd;stroke:none"
         id="path114" />
      <path
         d="m 4786.58,4036.43 c -31.98,-21.4 -52.18,-86.46 -19.61,-122.04 18.69,-20.42 25.26,-37.28 54.93,-42.97 156.31,-29.96 127.3,244.14 -35.32,165.01"
         style="fill:#ffffff;fill-opacity:1;fill-rule:evenodd;stroke:none"
         id="path116" />
      <path
         d="m 5018.62,4043.36 c -31.99,-21.4 -52.19,-86.47 -19.61,-122.04 18.7,-20.43 25.26,-37.29 54.94,-42.97 156.31,-29.96 127.28,244.14 -35.33,165.01"
         style="fill:#ffffff;fill-opacity:1;fill-rule:evenodd;stroke:none"
         id="path118" />
      <path
         d="m 5229.89,3977.55 c -31.97,-21.39 -52.17,-86.46 -19.61,-122.04 18.69,-20.42 25.26,-37.29 54.94,-42.97 156.31,-29.95 127.28,244.15 -35.33,165.01"
         style="fill:#ffffff;fill-opacity:1;fill-rule:evenodd;stroke:none"
         id="path120" />
      <path
         d="m 5461.94,3832.09 c -31.99,-21.4 -52.19,-86.46 -19.61,-122.03 18.68,-20.43 25.26,-37.3 54.94,-42.98 156.29,-29.96 127.28,244.15 -35.33,165.01"
         style="fill:#ffffff;fill-opacity:1;fill-rule:evenodd;stroke:none"
         id="path122" />
      <path
         d="m 5624.71,3641.61 c -31.98,-21.39 -52.17,-86.46 -19.62,-122.04 18.7,-20.43 25.27,-37.29 54.96,-42.97 156.29,-29.97 127.27,244.14 -35.34,165.01"
         style="fill:#ffffff;fill-opacity:1;fill-rule:evenodd;stroke:none"
         id="path124" />
      <path
         d="m 5680.13,3413.03 c -31.97,-21.4 -52.19,-86.47 -19.62,-122.04 18.7,-20.43 25.27,-37.3 54.95,-42.98 156.3,-29.94 127.28,244.15 -35.33,165.02"
         style="fill:#ffffff;fill-opacity:1;fill-rule:evenodd;stroke:none"
         id="path126" />
      <path
         d="m 5655.89,3163.67 c -31.98,-21.4 -52.19,-86.46 -19.62,-122.04 18.7,-20.43 25.27,-37.29 54.95,-42.97 156.28,-29.96 127.28,244.14 -35.33,165.01"
         style="fill:#ffffff;fill-opacity:1;fill-rule:evenodd;stroke:none"
         id="path128" />
      <path
         d="m 5565.84,2924.7 c -31.99,-21.4 -52.19,-86.48 -19.61,-122.04 18.68,-20.42 25.25,-37.3 54.94,-42.97 156.29,-29.96 127.28,244.14 -35.33,165.01"
         style="fill:#ffffff;fill-opacity:1;fill-rule:evenodd;stroke:none"
         id="path130" />
      <path
         d="m 5378.82,2737.67 c -31.98,-21.4 -52.19,-86.46 -19.62,-122.03 18.7,-20.43 25.27,-37.29 54.95,-42.98 156.3,-29.96 127.28,244.14 -35.33,165.01"
         style="fill:#ffffff;fill-opacity:1;fill-rule:evenodd;stroke:none"
         id="path132" />
      <path
         d="m 5378.82,2737.67 c -31.98,-21.4 -52.19,-86.46 -19.62,-122.03 18.7,-20.43 25.27,-37.29 54.95,-42.98 156.3,-29.96 127.28,244.14 -35.33,165.01"
         style="fill:#ffffff;fill-opacity:1;fill-rule:evenodd;stroke:none"
         id="path134" />
      <path
         d="m 5146.77,2630.31 c -31.97,-21.4 -52.17,-86.46 -19.62,-122.04 18.7,-20.42 25.27,-37.29 54.95,-42.97 156.3,-29.96 127.28,244.14 -35.33,165.01"
         style="fill:#ffffff;fill-opacity:1;fill-rule:evenodd;stroke:none"
         id="path136" />
      <path
         d="m 4890.48,2602.59 c -31.97,-21.38 -52.19,-86.46 -19.6,-122.02 18.68,-20.43 25.25,-37.31 54.93,-42.97 156.3,-29.96 127.28,244.14 -35.33,164.99"
         style="fill:#ffffff;fill-opacity:1;fill-rule:evenodd;stroke:none"
         id="path138" />
      <path
         d="m 4890.48,2602.59 c -31.97,-21.38 -52.19,-86.46 -19.6,-122.02 18.68,-20.43 25.25,-37.31 54.93,-42.97 156.3,-29.96 127.28,244.14 -35.33,164.99"
         style="fill:#ffffff;fill-opacity:1;fill-rule:evenodd;stroke:none"
         id="path140" />
      <path
         d="m 4641.12,2651.09 c -31.98,-21.4 -52.18,-86.46 -19.62,-122.04 18.7,-20.42 25.27,-37.29 54.95,-42.97 156.3,-29.96 127.29,244.14 -35.33,165.01"
         style="fill:#ffffff;fill-opacity:1;fill-rule:evenodd;stroke:none"
         id="path142" />
      <path
         d="m 4419.47,2786.15 c -31.98,-21.39 -52.19,-86.46 -19.61,-122.03 18.68,-20.43 25.25,-37.29 54.94,-42.97 156.3,-29.97 127.28,244.14 -35.33,165"
         style="fill:#ffffff;fill-opacity:1;fill-rule:evenodd;stroke:none"
         id="path144" />
      <path
         d="m 4270.55,3021.66 c -31.99,-21.39 -52.19,-86.46 -19.63,-122.03 18.7,-20.43 25.27,-37.29 54.95,-42.98 156.3,-29.96 127.28,244.15 -35.32,165.01"
         style="fill:#ffffff;fill-opacity:1;fill-rule:evenodd;stroke:none"
         id="path146" />
      <path
         d="m 4204.74,3295.27 c -31.98,-21.4 -52.19,-86.46 -19.62,-122.03 18.7,-20.43 25.26,-37.29 54.95,-42.98 156.29,-29.96 127.27,244.15 -35.33,165.01"
         style="fill:#ffffff;fill-opacity:1;fill-rule:evenodd;stroke:none"
         id="path148" />
      <path
         d="m 4235.91,3561.95 c -31.98,-21.4 -52.19,-86.47 -19.62,-122.03 18.7,-20.43 25.26,-37.3 54.95,-42.98 156.29,-29.96 127.28,244.15 -35.33,165.01"
         style="fill:#ffffff;fill-opacity:1;fill-rule:evenodd;stroke:none"
         id="path150" />
      <path
         d="m 5057.09,3658.6 c -11.59,12.31 -22.45,28.61 -41.48,34.12 -166.37,48.23 -149.41,-213.1 0.6,-163.49 49.1,16.23 77.89,90.13 40.88,129.37"
         style="fill:#f1531c;fill-opacity:1;fill-rule:evenodd;stroke:none"
         id="path152" />
      <path
         d="m 5296.07,3596.27 c -11.6,12.29 -22.45,28.6 -41.5,34.12 -166.37,48.22 -149.4,-213.11 0.61,-163.5 49.09,16.23 77.89,90.13 40.89,129.38"
         style="fill:#f1531c;fill-opacity:1;fill-rule:evenodd;stroke:none"
         id="path154" />
      <path
         d="m 5431.13,3405.78 c -11.58,12.3 -22.44,28.6 -41.49,34.12 -166.37,48.23 -149.4,-213.1 0.62,-163.5 49.08,16.23 77.89,90.13 40.87,129.38"
         style="fill:#f1531c;fill-opacity:1;fill-rule:evenodd;stroke:none"
         id="path156" />
      <path
         d="m 5417.29,3170.27 c -11.6,12.31 -22.46,28.6 -41.49,34.13 -166.37,48.23 -149.4,-213.1 0.6,-163.51 49.08,16.24 77.9,90.13 40.89,129.38"
         style="fill:#f1531c;fill-opacity:1;fill-rule:evenodd;stroke:none"
         id="path158" />
      <path
         d="m 5417.29,3170.27 c -11.6,12.31 -22.46,28.6 -41.49,34.13 -166.37,48.23 -149.4,-213.1 0.6,-163.51 49.08,16.24 77.9,90.13 40.89,129.38"
         style="fill:#f1531c;fill-opacity:1;fill-rule:evenodd;stroke:none"
         id="path160" />
      <path
         d="m 5289.13,2979.78 c -11.58,12.31 -22.44,28.61 -41.48,34.13 -166.37,48.24 -149.4,-213.1 0.61,-163.51 49.08,16.25 77.89,90.14 40.87,129.38"
         style="fill:#f1531c;fill-opacity:1;fill-rule:evenodd;stroke:none"
         id="path162" />
      <path
         d="m 5077.88,2913.98 c -11.6,12.31 -22.46,28.6 -41.49,34.13 -166.37,48.23 -149.41,-213.1 0.6,-163.51 49.08,16.24 77.89,90.13 40.89,129.38"
         style="fill:#f1531c;fill-opacity:1;fill-rule:evenodd;stroke:none"
         id="path164" />
      <path
         d="m 4863.15,2965.92 c -11.6,12.31 -22.46,28.62 -41.49,34.13 -166.37,48.24 -149.4,-213.1 0.6,-163.49 49.08,16.23 77.9,90.13 40.89,129.36"
         style="fill:#f1531c;fill-opacity:1;fill-rule:evenodd;stroke:none"
         id="path166" />
      <path
         d="m 4714.21,3191.05 c -11.59,12.29 -22.44,28.61 -41.47,34.13 -166.38,48.23 -149.41,-213.1 0.59,-163.51 49.09,16.25 77.9,90.13 40.88,129.38"
         style="fill:#f1531c;fill-opacity:1;fill-rule:evenodd;stroke:none"
         id="path168" />
      <path
         d="m 4703.82,3419.64 c -11.59,12.29 -22.44,28.6 -41.47,34.11 -166.38,48.24 -149.41,-213.1 0.6,-163.5 49.08,16.23 77.89,90.13 40.87,129.39"
         style="fill:#f1531c;fill-opacity:1;fill-rule:evenodd;stroke:none"
         id="path170" />
    </g>
  </g>
</svg>
