<svg version="1.2" xmlns="http://www.w3.org/2000/svg" viewBox="0 0 1334 867" width="1334" height="867"><style>.a{fill:#e6a012}.b{fill:#211d1d}.c{fill:#fff}.d{fill:#f1531c}</style><path fill-rule="evenodd" class="a" d="m915.2 267.4c-40.3-42.7-78-99.4-144.1-118.5-37.5-10.9-72.2-17.2-104.4-19.6v101.4c21.5 1.6 44.6 5.8 69.6 13 44.1 12.8 69.2 50.5 96.1 79 85.7 90.9 19 262-94.7 299.5-25.3 8.4-49 12.9-71 14.1v101.5c33-1.9 68.5-8.6 106.5-21.1 170.5-56.4 270.5-313 142-449.3zm-248.5-36.7c-285-21.3-260.1 420.7 0 405.6v101.5c-390.2 22.6-427.6-640.5 0-608.5z"/><path fill-rule="evenodd" class="a" d="m815 334.3c-24-25.4-46.5-59.2-86-70.7-344.7-99.9-309.5 441.6 1.3 338.8 101.7-33.6 161.4-186.8 84.7-268.1z"/><path fill-rule="evenodd" class="b" d="m763.9 368.5c-15.8-16.7-30.5-38.8-56.3-46.3-225.8-65.5-202.8 289.2 0.8 221.9 66.6-22 105.7-122.3 55.5-175.6z"/><path fill-rule="evenodd" class="c" d="m723.2 395.7c-9.1-9.7-17.7-22.6-32.7-26.9-131.2-38.1-117.8 168 0.5 128.9 38.7-12.8 61.4-71.1 32.2-102z"/><path fill-rule="evenodd" class="b" d="m692.2 416.4c-4.1-4.4-7.9-10.2-14.7-12.2-59.2-17.1-53.1 75.8 0.2 58.2 17.5-5.8 27.7-32.1 14.5-46z"/><path fill-rule="evenodd" class="d" d="m644.7 383.5c-1.5-1.7-3-3.8-5.5-4.6-22.2-6.4-19.9 28.4 0.1 21.8 6.5-2.1 10.4-12 5.4-17.2z"/><path fill-rule="evenodd" class="d" d="m644.7 383.5c-1.5-1.7-3-3.8-5.5-4.6-22.2-6.4-19.9 28.4 0.1 21.8 6.5-2.1 10.4-12 5.4-17.2z"/><path fill-rule="evenodd" class="b" d="m480.4 198.7c-0.9-0.9-1.8-2.2-3.2-2.6-12.8-3.7-11.5 16.4 0 12.6 3.8-1.3 6-7 3.2-10z"/><path fill-rule="evenodd" class="b" d="m660.5 185.2c-11.6-3.5-1.2-20.7 7.2-10.3 0.9 1.2 0.9 2.7 1.1 4 0.6 4.1-4.5 7.5-8.3 6.3zm-0.5 34.1c-11.6-3.5-1.1-20.7 7.2-10.3 1 1.1 0.9 2.7 1.1 3.9 0.6 4.1-4.4 7.5-8.3 6.4zm0.6-65.6c-11.7-3.5-1.2-20.7 7.2-10.3 0.9 1.2 0.9 2.7 1.1 4 0.6 4.1-4.5 7.5-8.3 6.3z"/><path fill-rule="evenodd" class="b" d="m811.9 237.9c-7.4-9.6 11.1-17.5 11.9-4.2 0.1 1.5-0.8 2.7-1.4 3.9-1.9 3.7-8 3.5-10.5 0.3zm-20.1 27.5c-7.4-9.6 11.1-17.5 11.9-4.2 0.1 1.5-0.8 2.7-1.4 3.9-1.9 3.7-8 3.5-10.5 0.3zm38.5-53.1c-7.5-9.6 11-17.6 11.8-4.2 0.1 1.5-0.8 2.7-1.4 3.8-1.9 3.7-8 3.6-10.4 0.4z"/><path fill-rule="evenodd" class="b" d="m911.9 376.8c1.3-12.1 20.1-4.8 11.4 5.2-1 1.2-2.5 1.4-3.7 1.8-4 1.4-8.2-3-7.7-7zm-33.7 5.6c1.4-12.1 20.2-4.8 11.5 5.2-1 1.2-2.5 1.4-3.7 1.8-4 1.3-8.2-3.1-7.8-7zm64.7-11.1c1.4-12.1 20.2-4.8 11.4 5.2-1 1.2-2.5 1.4-3.7 1.8-3.9 1.4-8.2-3-7.7-7z"/><path fill-rule="evenodd" class="b" d="m443 545.9c-7.5-9.6-19.7 6.5-6.9 10.5 1.4 0.4 2.8-0.2 4.1-0.5 4-0.9 5.3-6.9 2.8-10zm31.5-13c-7.5-9.5-19.7 6.6-6.9 10.5 1.4 0.5 2.8-0.1 4.1-0.4 4-1 5.3-7 2.8-10.1zm-60.7 24.7c-7.6-9.6-19.7 6.5-7 10.4 1.5 0.5 2.8-0.1 4.1-0.4 4.1-1 5.3-6.9 2.9-10z"/><path fill-rule="evenodd" class="b" d="m411.5 366.3c-1.3-0.4-2.7-0.7-3.7-1.8-8.8-10.1 10-17.3 11.4-5.2 0.4 3.9-3.8 8.3-7.7 7zm33.6 5.6c-1.2-0.4-2.7-0.7-3.7-1.8-8.8-10.1 10-17.3 11.4-5.3 0.5 4-3.8 8.4-7.7 7.1zm-64.6-11.1c-1.3-0.4-2.8-0.7-3.8-1.8-8.7-10.1 10.1-17.3 11.5-5.2 0.4 3.9-3.8 8.3-7.7 7z"/><path fill-rule="evenodd" class="b" d="m898 533.6c1.3 0.4 2.7 1 4.1 0.6 12.9-3.5 1.3-20-6.6-10.7-2.5 3-1.5 9 2.5 10.1zm-31-14c1.2 0.3 2.6 1 4.1 0.6 12.8-3.5 1.2-20-6.6-10.7-2.6 3-1.5 9 2.5 10.1zm59.9 26.7c1.2 0.4 2.6 1 4.1 0.6 12.8-3.5 1.2-20-6.6-10.7-2.6 3-1.5 9 2.5 10.1z"/><path fill-rule="evenodd" class="b" d="m783.5 648.7c11.7-3.4 12.2 16.8-0.4 12.6-1.5-0.5-2.2-1.8-3.1-2.8-2.7-3.1-0.3-8.7 3.5-9.8zm-18.1-28.9c11.7-3.4 12.2 16.8-0.4 12.6-1.5-0.5-2.2-1.8-3.1-2.7-2.7-3.2-0.3-8.8 3.5-9.9zm35.1 55.4c11.7-3.4 12.3 16.8-0.4 12.6-1.4-0.5-2.2-1.8-3.1-2.8-2.7-3.1-0.3-8.7 3.5-9.8z"/><path fill-rule="evenodd" class="b" d="m606.8 675.3c10.9 5.4-2.3 20.7-8.8 9-0.7-1.3-0.5-2.8-0.4-4.1 0-4.1 5.6-6.6 9.2-4.9zm6-33.5c10.9 5.3-2.2 20.6-8.8 9-0.7-1.3-0.4-2.8-0.4-4.1 0.1-4.2 5.6-6.7 9.2-4.9zm-11.3 64.6c11 5.4-2.2 20.6-8.7 9-0.8-1.3-0.5-2.8-0.5-4.1 0.1-4.1 5.7-6.7 9.2-4.9z"/><path fill-rule="evenodd" class="b" d="m498.4 224.6c-0.9-1-1.8-2.2-3.2-2.6-12.8-3.8-11.5 16.4 0 12.5 3.8-1.2 6-6.9 3.2-9.9z"/><path fill-rule="evenodd" class="b" d="m517.5 252.8c-0.9-1-1.7-2.2-3.2-2.7-12.8-3.7-11.5 16.4 0.1 12.6 3.8-1.2 6-6.9 3.1-9.9z"/><path fill-rule="evenodd" class="c" d="m360.3 399.3c-0.9 17.9-0.6 36 1.1 53.9 27.2 12 61.6 14.2 102.6 0.9-1.9-15.7-2.4-31.5-1.3-47.2-4.1 2.4-8.4 4.3-12.9 5.8-39.1 13-69.2 4.8-89.5-13.4z"/><path fill-rule="evenodd" class="c" d="m395.7 266.1c17 32.4 46 57.6 86.2 64.2 7.2-15.5 16.3-29.8 27.5-42.6-46.1 1.7-74.8-30-83.7-67-11.5 14.1-21.5 29.3-30 45.4z"/><path fill-rule="evenodd" class="c" d="m529.9 146.4c1.5 36.2 15.3 72.4 40.3 97.7 18.2-7.5 38.8-12.3 61.8-13.7-40.4-13-60.5-56.4-57.5-96.5-15.7 3-30.6 7.2-44.6 12.5z"/><path fill-rule="evenodd" class="c" d="m743.9 141.7c-21.3 26.1-30.3 61.6-28 96.6q10 2.4 20.4 5.4c9.8 2.8 18.7 6.9 26.8 11.8-8.9-36.1 1-77.4 31.8-97.7-7.5-3.5-15.4-6.5-23.8-8.9q-13.8-4-27.2-7.2z"/><path fill-rule="evenodd" class="c" d="m907.5 259.1c-38.9 6.1-65.8 28-81.4 56.8q3.2 3.5 6.3 6.8c10.7 11.3 19 23.9 25.1 37.2 8.9-33.8 36.3-61.1 83.9-58.1-7.4-12.2-16.1-23.7-26.2-34.4q-3.9-4.1-7.7-8.3z"/><path fill-rule="evenodd" class="c" d="m871.2 430.5c-0.5 22-4.9 44.2-12.6 65.5 18.4-24.3 51.8-37.5 101.7-23q4.3 1.2 8.1 3.2c2.8-15 4.5-30 5-45-41.6-11.7-75.6-10.5-102.2-0.7z"/><path fill-rule="evenodd" class="c" d="m803.1 583.9c19.2 5.5 30.1 21.9 41.7 34.3 12.2 12.9 17.3 29.6 16.9 46.8 13.8-12.1 26.5-25.5 38.1-40-4.1-11.2-10.4-21.7-19-30.8-14.6-15.5-28.3-35.1-49.1-46-8.8 12.9-18.9 24.7-30.1 35.2q0.8 0.3 1.5 0.5z"/><path fill-rule="evenodd" class="c" d="m664.1 636.6c23.2 28.8 14.9 73.2-9.3 101.9 17.5-0.4 35.6-2.2 54.5-5.6 15.3-33.4 18.1-72.1 2.2-103.2-16.6 3.9-32.4 6.2-47.4 6.9z"/><path fill-rule="evenodd" class="c" d="m451.7 658.4c11.7 12 24.5 22.9 38.3 32.6 31.1-15.6 55.3-46.7 66.4-80.9-14.2-8.9-26.9-19.7-37.9-31.9-3.2 33.4-26.3 67.2-57.6 77.5q-4.7 1.6-9.2 2.7z"/><path fill-rule="evenodd" class="b" d="m569.9 285.5c-6.3 4.2-10.3 17-3.9 24 3.7 4.1 5 7.4 10.8 8.5 30.8 5.9 25.1-48.1-6.9-32.5z"/><path fill-rule="evenodd" class="b" d="m569.9 285.5c-6.3 4.2-10.3 17-3.9 24 3.7 4.1 5 7.4 10.8 8.5 30.8 5.9 25.1-48.1-6.9-32.5z"/><path fill-rule="evenodd" class="b" d="m609.1 272.6c-6.3 4.2-10.3 17-3.9 24 3.7 4 5 7.4 10.9 8.5 30.7 5.9 25-48.1-7-32.5z"/><path fill-rule="evenodd" class="b" d="m661.3 268.9c-6.3 4.2-10.3 17-3.9 24 3.7 4 5 7.4 10.8 8.5 30.8 5.9 25.1-48.1-6.9-32.5z"/><path fill-rule="evenodd" class="b" d="m710.2 275.8c-6.3 4.2-10.2 17-3.8 24 3.7 4.1 4.9 7.4 10.8 8.5 30.8 5.9 25-48.1-7-32.5z"/><path fill-rule="evenodd" class="b" d="m752.3 301.2c-6.3 4.2-10.3 17-3.9 24 3.7 4.1 5 7.4 10.8 8.5 30.8 5.9 25.1-48.1-6.9-32.5z"/><path fill-rule="evenodd" class="b" d="m781.8 337.2c-6.3 4.3-10.3 17.1-3.8 24.1 3.6 4 4.9 7.3 10.8 8.4 30.7 5.9 25-48-7-32.5z"/><path fill-rule="evenodd" class="b" d="m801.7 383.4c-6.3 4.2-10.3 17-3.9 24 3.7 4.1 5 7.4 10.8 8.5 30.8 5.9 25.1-48.1-6.9-32.5z"/><path fill-rule="evenodd" class="b" d="m804 427.3c-6.3 4.2-10.3 17-3.9 24 3.7 4 5 7.3 10.8 8.5 30.8 5.9 25.1-48.1-6.9-32.5z"/><path fill-rule="evenodd" class="b" d="m797.5 469.8c-6.3 4.2-10.3 17-3.8 24 3.6 4 4.9 7.3 10.8 8.5 30.7 5.8 25-48.1-7-32.5z"/><path fill-rule="evenodd" class="b" d="m771.7 514.6c-6.3 4.2-10.3 17-3.9 24 3.7 4 5 7.3 10.8 8.4 30.8 5.9 25.1-48-6.9-32.4z"/><path fill-rule="evenodd" class="b" d="m732.4 544.6c-6.3 4.2-10.3 17-3.9 24 3.7 4 5 7.3 10.9 8.5 30.7 5.9 25-48.1-7-32.5z"/><path fill-rule="evenodd" class="b" d="m681.6 561.2c-6.3 4.2-10.3 17-3.9 24 3.7 4 5 7.4 10.9 8.5 30.7 5.9 25-48.1-7-32.5z"/><path fill-rule="evenodd" class="b" d="m632.7 565.4c-6.3 4.2-10.3 17-3.9 24 3.7 4 5 7.3 10.8 8.4 30.8 5.9 25.1-48-6.9-32.4z"/><path fill-rule="evenodd" class="b" d="m585.6 554.7c-6.3 4.3-10.3 17.1-3.9 24.1 3.7 4 5 7.3 10.8 8.4 30.8 5.9 25.1-48-6.9-32.5z"/><path fill-rule="evenodd" class="b" d="m548.6 524.3c-6.3 4.2-10.3 17-3.8 24 3.6 4 4.9 7.3 10.8 8.4 30.7 5.9 25-48-7-32.4z"/><path fill-rule="evenodd" class="b" d="m548.6 524.3c-6.3 4.2-10.3 17-3.8 24 3.6 4 4.9 7.3 10.8 8.4 30.7 5.9 25-48-7-32.4z"/><path fill-rule="evenodd" class="b" d="m522.3 486.9c-6.3 4.2-10.3 17-3.9 24 3.7 4 5 7.3 10.8 8.4 30.8 5.9 25.1-48-6.9-32.4z"/><path fill-rule="evenodd" class="b" d="m510.7 436.5c-6.2 4.2-10.2 17-3.8 24 3.7 4.1 5 7.4 10.8 8.5 30.8 5.9 25.1-48.1-7-32.5z"/><path fill-rule="evenodd" class="b" d="m509.8 383.9c-6.3 4.2-10.2 17-3.8 24 3.6 4 4.9 7.3 10.8 8.5 30.7 5.9 25-48.1-7-32.5z"/><path fill-rule="evenodd" class="b" d="m527.8 326.6c-6.3 4.2-10.2 17-3.8 24 3.7 4.1 4.9 7.4 10.8 8.5 30.7 5.9 25-48.1-7-32.5z"/><path fill-rule="evenodd" class="c" d="m582.8 359c-4.3 2.8-7 11.5-2.6 16.2 2.5 2.7 3.4 5 7.3 5.8 20.8 3.9 17-32.6-4.7-22z"/><path fill-rule="evenodd" class="c" d="m607.7 339.1c-4.2 2.8-6.9 11.5-2.6 16.3 2.5 2.7 3.4 4.9 7.3 5.7 20.9 4 17-32.6-4.7-22z"/><path fill-rule="evenodd" class="c" d="m638.2 328.5c-4.3 2.8-6.9 11.5-2.6 16.2 2.5 2.8 3.4 5 7.3 5.8 20.9 4 17-32.6-4.7-22z"/><path fill-rule="evenodd" class="c" d="m638.2 328.5c-4.3 2.8-6.9 11.5-2.6 16.2 2.5 2.8 3.4 5 7.3 5.8 20.9 4 17-32.6-4.7-22z"/><path fill-rule="evenodd" class="c" d="m669.1 327.6c-4.2 2.8-6.9 11.5-2.6 16.2 2.5 2.7 3.4 5 7.4 5.8 20.8 3.9 16.9-32.6-4.8-22z"/><path fill-rule="evenodd" class="c" d="m697.3 336.3c-4.2 2.9-6.9 11.6-2.6 16.3 2.5 2.7 3.4 5 7.3 5.7 20.9 4 17-32.5-4.7-22z"/><path fill-rule="evenodd" class="c" d="m728.3 355.7c-4.3 2.9-7 11.5-2.7 16.3 2.5 2.7 3.4 5 7.4 5.7 20.8 4 16.9-32.5-4.7-22z"/><path fill-rule="evenodd" class="c" d="m750 381.1c-4.3 2.9-7 11.5-2.7 16.3 2.5 2.7 3.4 5 7.4 5.7 20.8 4 16.9-32.5-4.7-22z"/><path fill-rule="evenodd" class="c" d="m757.4 411.6c-4.3 2.8-7 11.5-2.7 16.3 2.5 2.7 3.4 4.9 7.4 5.7 20.8 4 16.9-32.6-4.7-22z"/><path fill-rule="evenodd" class="c" d="m754.1 444.8c-4.2 2.9-6.9 11.6-2.6 16.3 2.5 2.7 3.4 5 7.3 5.7 20.9 4 17-32.5-4.7-22z"/><path fill-rule="evenodd" class="c" d="m742.1 476.7c-4.3 2.9-6.9 11.5-2.6 16.3 2.5 2.7 3.4 5 7.3 5.7 20.9 4 17-32.5-4.7-22z"/><path fill-rule="evenodd" class="c" d="m717.2 501.6c-4.3 2.9-7 11.6-2.6 16.3 2.5 2.7 3.3 5 7.3 5.7 20.8 4 17-32.5-4.7-22z"/><path fill-rule="evenodd" class="c" d="m717.2 501.6c-4.3 2.9-7 11.6-2.6 16.3 2.5 2.7 3.3 5 7.3 5.7 20.8 4 17-32.5-4.7-22z"/><path fill-rule="evenodd" class="c" d="m686.2 516c-4.2 2.8-6.9 11.5-2.6 16.2 2.5 2.8 3.4 5 7.3 5.8 20.9 4 17-32.6-4.7-22z"/><path fill-rule="evenodd" class="c" d="m652.1 519.7c-4.3 2.8-7 11.5-2.6 16.2 2.4 2.7 3.3 5 7.3 5.8 20.8 3.9 16.9-32.6-4.7-22z"/><path fill-rule="evenodd" class="c" d="m652.1 519.7c-4.3 2.8-7 11.5-2.6 16.2 2.4 2.7 3.3 5 7.3 5.8 20.8 3.9 16.9-32.6-4.7-22z"/><path fill-rule="evenodd" class="c" d="m618.8 513.2c-4.2 2.8-6.9 11.5-2.6 16.3 2.5 2.7 3.4 4.9 7.3 5.7 20.9 4 17-32.6-4.7-22z"/><path fill-rule="evenodd" class="c" d="m589.3 495.2c-4.3 2.8-7 11.5-2.7 16.3 2.5 2.7 3.4 4.9 7.4 5.7 20.8 4 16.9-32.6-4.7-22z"/><path fill-rule="evenodd" class="c" d="m569.4 463.8c-4.3 2.8-7 11.5-2.6 16.2 2.5 2.8 3.4 5 7.3 5.8 20.9 4 17-32.6-4.7-22z"/><path fill-rule="evenodd" class="c" d="m560.6 427.3c-4.2 2.9-6.9 11.5-2.6 16.3 2.5 2.7 3.4 4.9 7.3 5.7 20.9 4 17-32.6-4.7-22z"/><path fill-rule="evenodd" class="c" d="m564.8 391.7c-4.3 2.9-7 11.6-2.6 16.3 2.5 2.7 3.3 5 7.3 5.7 20.8 4 17-32.5-4.7-22z"/><path fill-rule="evenodd" class="d" d="m674.3 378.9c-1.6-1.7-3-3.9-5.6-4.6-22.1-6.4-19.9 28.4 0.1 21.8 6.6-2.2 10.4-12 5.5-17.2z"/><path fill-rule="evenodd" class="d" d="m706.1 387.2c-1.5-1.7-3-3.8-5.5-4.6-22.2-6.4-19.9 28.4 0.1 21.8 6.5-2.1 10.4-12 5.4-17.2z"/><path fill-rule="evenodd" class="d" d="m724.2 412.6c-1.6-1.7-3-3.9-5.6-4.6-22.2-6.4-19.9 28.4 0.1 21.8 6.5-2.2 10.4-12 5.5-17.2z"/><path fill-rule="evenodd" class="d" d="m722.3 444c-1.5-1.7-3-3.8-5.5-4.6-22.2-6.4-19.9 28.4 0.1 21.8 6.5-2.2 10.3-12 5.4-17.2z"/><path fill-rule="evenodd" class="d" d="m722.3 444c-1.5-1.7-3-3.8-5.5-4.6-22.2-6.4-19.9 28.4 0.1 21.8 6.5-2.2 10.3-12 5.4-17.2z"/><path fill-rule="evenodd" class="d" d="m705.2 469.4c-1.5-1.7-3-3.9-5.5-4.6-22.2-6.4-19.9 28.4 0.1 21.8 6.5-2.2 10.4-12 5.4-17.2z"/><path fill-rule="evenodd" class="d" d="m677.1 478.1c-1.6-1.6-3-3.8-5.6-4.5-22.2-6.4-19.9 28.4 0.1 21.8 6.5-2.2 10.4-12 5.5-17.3z"/><path fill-rule="evenodd" class="d" d="m648.4 471.2c-1.5-1.6-3-3.8-5.5-4.5-22.2-6.5-19.9 28.4 0.1 21.8 6.5-2.2 10.4-12.1 5.4-17.3z"/><path fill-rule="evenodd" class="d" d="m628.6 441.2c-1.6-1.6-3-3.8-5.6-4.6-22.2-6.4-19.9 28.5 0.1 21.8 6.6-2.1 10.4-12 5.5-17.2z"/><path fill-rule="evenodd" class="d" d="m627.2 410.7c-1.6-1.6-3-3.8-5.6-4.5-22.1-6.5-19.9 28.4 0.1 21.8 6.6-2.2 10.4-12.1 5.5-17.3z"/></svg>