<svg version="1.2" xmlns="http://www.w3.org/2000/svg" viewBox="0 0 670 522" width="670" height="522">
	<title>ab_Indigenous Conference Services1-01-ai</title>
	<style>
		.s0 { fill: #f69700 } 
		.s1 { fill: #000000 } 
	</style>
	<g id="Logo-02">
	</g>
	<g id="HQ">
		<g id="&lt;Group&gt;">
			<g id="&lt;Group&gt;">
				<g id="&lt;Group&gt;">
					<g id="&lt;Group&gt;">
						<path id="&lt;Path&gt;" class="s0" d="m585.2 128.2c4.2 6.7 11.6 11.1 19.9 11.1q0.4 0 0.8 0 0.3 0 0.7 0c12.9-0.9 22.6-12 21.8-24.8-0.8-12.4-11.1-21.9-23.3-21.9q-0.7 0-1.5 0.1c-12.9 0.8-22.6 11.9-21.8 24.8 0.3 3.9 1.5 7.6 3.4 10.7z"/>
						<path id="&lt;Path&gt;" class="s0" d="m297.8 113.3v-7.3l-2.4 1.3 1.7 6q0 0 0 0 0.4 0 0.7 0z"/>
						<path id="&lt;Path&gt;" class="s0" d="m64.8 144.3q0.4 0.1 0.8 0.1c8.3 0 15.7-4.4 19.9-11.2 1.9-3.1 3.1-6.8 3.4-10.7 0.8-12.9-8.9-24-21.8-24.8q-0.8-0.1-1.5-0.1c-12.2 0-22.5 9.5-23.3 21.9-0.8 12.9 8.9 24 21.8 24.8q0.3 0 0.7 0z"/>
						<path id="&lt;Path&gt;" class="s0" d="m372.9 113.3q0.3 0 0.7 0.1l1.7-6.1-2.4-1.3z"/>
						<path id="&lt;Path&gt;" class="s0" d="m273.9 116.2l3.7 10.6c1.1 2.9 3.9 4.8 6.9 4.8 0.6 0 1.4-0.1 2-0.3 3.8-1.1 6-5.1 4.9-8.9l-1.2-4.1-1.1-4.1-3.1-10.8 19.8-10.8v20c19.8-1.4 39.7-1.4 59.1 0v-20l19.8 10.8-3.1 10.8q0 0 0 0l-2.3 8.2q-0.3 1-0.3 2c0 3.1 2 6 5.2 6.9q1 0.3 2 0.3c1.5 0 3-0.5 4.2-1.3 1.2-0.8 2.1-2 2.7-3.5l3.7-10.6 4.8-13.8c1-2.7 0.3-5.6-1.8-7.6l-27.5-26c-4.3-4.1-9.9-6.3-15.7-6.3h-6.5l-10.9 28.4-2.3-19.9 5.5-8.5h-14.1l5.5 8.5-2.3 19.9-10.9-28.4h-6.9c-5.9 0-11.5 2.3-15.8 6.4l-27 25.9c-2.1 2-2.8 4.9-1.8 7.6z"/>
						<path id="&lt;Path&gt;" class="s0" d="m335.3 54.3c12.7 0 22.9-10.2 22.9-22.8 0-12.6-10.2-22.8-22.9-22.8-12.6 0-22.8 10.2-22.8 22.8 0 12.6 10.2 22.8 22.8 22.8z"/>
						<path id="&lt;Path&gt;" class="s0" d="m408.5 121.5c-1.7 3.7 0.1 8 3.9 9.4q1.2 0.4 2.4 0.4c2.5 0 4.8-1.4 6.1-3.7l3.4-6.2 5.3-9.8 22.3-4.5-3.2 20.8c10.6 3.2 20.9 6.9 30.8 11l17.5 0.3 2.3-18 11.3 11.4-17.9 12.2-0.4 0.3c-3.2 2.1-3.9 6.5-1.6 9.6 0.6 0.9 1.5 1.6 2.4 2q0.3 0.2 0.7 0.4 1.1 0.4 2.3 0.4c1.1 0 2.2-0.3 3.2-0.8l4-2.1 4.1-2.2 14.2-7.4 4-2.1c7.2-3.5 9.8-12.4 5.8-19.3l-13.5-23.5c-2.5-4.3-6.7-7.4-11.5-8.5l-12-2.6-17.2 21.5 2.2-16.3 7.4-7-13.8-3.5 3.3 9.7-6.5 17.4-1.8-27.6-5.2-1.2q-1.9-0.4-3.8-0.4c-2.9 0-5.7 0.7-8.3 2.1l-28.1 15c-3.3 1.7-5.9 4.5-7.4 7.9l-5.3 11.8-0.7 1.6z"/>
						<path id="&lt;Path&gt;" class="s0" d="m486.8 77.8c12.8 0 23.2-10.4 23.2-23.2 0-12.7-10.4-23.1-23.2-23.1-12.7 0-23.1 10.4-23.1 23.1 0 12.8 10.4 23.2 23.1 23.2z"/>
						<path id="&lt;Path&gt;" class="s0" d="m518.3 158.9l-0.9 0.6-0.8 0.5c-4.5 3.1-4.7 9.7-0.5 13.1 1.5 1.2 3.3 1.9 5.2 1.9 1.5 0 3.1-0.5 4.5-1.4l7.1-4.6 11-7.2 24.9-0.2-7.4 32.2 10.9 11.6 27.5-4-3.9-13.5 8.3 15.6-33.4 4.5-4.5 0.6c-4.6 0.7-8 4.8-7.7 9.5q0 0.2 0.1 0.5 0 0.2 0.1 0.5 0.2 1.2 0.7 2.2 0.3 0.7 0.8 1.4c1.6 2.3 4.3 3.7 7.2 3.7q0.5 0 0.9 0l12.1-1.2 26-2.4c12.9-0.9 22.8-11.9 22.3-24.8l-0.8-23.1c-0.3-7.3-4.3-13.9-10.5-17.7l-4.4-2.7-26.2 20.6 8.9-22.4 9-4.9-0.9-0.5-12.2-6.6 0.3 3.7 0.6 7.2-13.6 19.5 5.2-31.8 0.3-1.5q-1.3-0.4-2.5-0.7-2.2-0.5-4.5-0.5-2.7 0-5.4 0.7l-30.2 7.7c-3.4 0.9-6.7 2.3-9.7 4.3z"/>
						<path id="&lt;Path&gt;" class="s0" d="m145.1 148l4 2 9.7 5.1 12.6 6.6c1 0.5 2.1 0.8 3.2 0.8q0.8 0 1.5-0.2 1.2-0.3 2.2-0.9 1-0.7 1.7-1.7 0.3-0.3 0.4-0.6 0.4-0.6 0.6-1.2c1-2.8 0-6-2.6-7.8l-4.7-3.2-13.6-9.2 11.3-11.5 2.2 18.1 5.8-0.1c12.8-6.1 26.8-11.5 41.8-16.1l-2.4-16 22.3 4.5 2.9 5.4 5.8 10.7q0.2 0.4 0.5 0.8c0.8 1 1.8 1.8 2.9 2.3q0.9 0.3 1.8 0.5 0.4 0 0.9 0 0.3 0 0.6 0 0.9-0.1 1.8-0.4c3.8-1.4 5.6-5.7 3.9-9.4l-3.5-7.7-3.2-7.1c-1.5-3.4-4.1-6.2-7.4-8l-28.1-15c-2.6-1.3-5.4-2.1-8.3-2.1q-1.9 0-3.8 0.5l-5.2 1.1-1.8 27.6-6.5-17.3 3.3-9.7-13.9 3.4 7.5 7.1 2.1 16.2-17.1-21.5-12 2.7c-4.8 1-9 4.1-11.5 8.4l-13.5 23.5c-4 7-1.4 15.8 5.8 19.4z"/>
						<path id="&lt;Path&gt;" class="s0" d="m207 59.7c0-12.8-10.4-23.1-23.2-23.1-12.7 0-23.1 10.3-23.1 23.1 0 12.7 10.4 23.1 23.1 23.1 12.8 0 23.2-10.4 23.2-23.1z"/>
						<path id="&lt;Path&gt;" class="s0" d="m88.2 230.1l14.1 1.3q0.4 0.1 0.9 0.1c1.6 0 3.1-0.5 4.4-1.2q1.4-0.8 2.4-2 0.7-0.9 1.2-1.9 0.5-1.1 0.7-2.3 0.1-0.5 0.2-1 0-0.4 0-0.9 0-0.4-0.1-0.8-0.2-1.7-1-3.1c-1.3-2.5-3.7-4.2-6.6-4.6l-7.5-1-30.4-4.1 8.3-15.7-3.9 13.5 27.4 4.1q4.6-7.3 10.5-14.2l-6.9-29.6 24.9 0.1 7.5 4.9 10.6 7c1.4 0.9 3 1.3 4.5 1.3 1.8 0 3.7-0.6 5.2-1.8 4.2-3.5 4-10-0.5-13.2l-5.4-3.7-10.2-7c-3-1.9-6.3-3.4-9.8-4.3l-30.1-7.7q-2.7-0.7-5.4-0.7-2.3 0-4.5 0.5-1.2 0.3-2.5 0.7l0.3 1.5 5.2 31.9-13.6-19.6 0.6-7.2 0.3-3.6-12.2 6.5-0.9 0.5 9 5 8.9 22.4-26.2-20.7-4.4 2.7c-6.3 3.8-10.2 10.5-10.5 17.8l-0.9 23c-0.4 13 9.5 24 22.4 24.8l24 2.3z"/>
						<path id="&lt;Path&gt;" class="s0" d="m234.3 399.1c2.9-5.6 0.5-12.5-5.2-15.1-1.5-0.7-3-1-4.5-1-3.5 0-6.8 1.6-8.9 4.5l-20.2 27.5-44-12.6c-4.9 2.3-10.3 3.6-15.9 3.6q-0.6 0-1.3-0.1c-9.9-0.3-19.1-4.5-25.9-11.8-6-6.5-9.5-14.7-9.9-23.5l-15.2 16.7c-5.9 6.5-4.8 16.7 2.3 21.8l13.9 9.9-1 27.7c-0.2 6.8 4.2 13 10.8 14.9l40 11.9q2.1 0.7 4.3 0.7c7.8 0 14.7-6.2 15-14.5l0.6-18.5 23.2 3.1q1.7 0.2 3.3 0.2c8.9 0 17.3-5 21.6-13.1z"/>
						<path id="&lt;Path&gt;" class="s0" d="m134.6 398q0.5 0 1 0c7.4 0 14.4-2.8 19.9-7.8 5.7-5.3 9-12.5 9.2-20.3 0.6-16.1-12-29.6-28.1-30.2q-0.5 0-1 0c-7.4 0-14.4 2.7-19.9 7.8-5.7 5.3-9 12.5-9.2 20.3-0.6 16.1 12 29.6 28.1 30.2z"/>
						<path id="&lt;Path&gt;" class="s0" d="m129.9 322.9c5.9-2.9 7.2-10.8 2.5-15.5-1.8-1.8-4.3-2.8-6.8-2.8-1.2 0-2.4 0.2-3.6 0.7l-38.2 15.3-16.3-13.8-9.4-21-3.7 2.9q-1.7 1.4-3.4 2.6l-5.8 4.4 0.6-1.5c-4 1.7-8.3 2.6-12.8 2.6q-0.6 0-1.2 0-4.1-0.2-8-1.3 0.3 0.7 0.7 1.5l8.2 16.7c3.3 6.7 8.8 12.1 15.6 15.4l24.3 11.8c3.2 1.6 6.7 2.4 10.2 2.4 3.5 0 7-0.8 10.3-2.4z"/>
						<path id="&lt;Path&gt;" class="s0" d="m65.3 265.6q-0.1 2.6-0.6 5l3.1-2.3 29.1-1.9c4.9-0.3 8.6-4.7 7.9-9.7-0.5-4.2-4.2-7.4-8.5-7.4q-0.3 0-0.6 0l-32.9 2.6q0 0 0 0c1.8 4.3 2.7 8.9 2.5 13.7z"/>
						<path id="&lt;Path&gt;" class="s0" d="m33 288.8c6.2 0 12-2.3 16.6-6.5 4.8-4.5 7.5-10.5 7.7-17 0.5-13.4-10-24.7-23.4-25.2q-0.5 0-0.9 0c-13.1 0-23.9 10.3-24.4 23.5-0.2 6.5 2.1 12.7 6.6 17.5 4.4 4.7 10.4 7.5 16.9 7.7q0.5 0 0.9 0z"/>
						<path id="&lt;Path&gt;" class="s0" d="m536.4 405.9q-0.7 0.1-1.4 0.1c-5.5 0-10.9-1.3-15.8-3.6l-44 12.6-20.2-27.5c-2.1-2.9-5.4-4.5-8.9-4.5-1.5 0-3 0.3-4.5 1-5.8 2.6-8.2 9.5-5.2 15.1l17 32.3c4.3 8.1 12.7 13.1 21.6 13.1q1.6 0 3.3-0.2l23.2-3.1 0.6 18.5c0.3 8.3 7.2 14.5 15 14.5q2.1 0 4.3-0.7l40-11.9c6.6-1.9 11-8.1 10.7-14.9l-0.9-27.7 13.9-9.9c7.1-5.1 8.2-15.3 2.3-21.8l-15.2-16.7c-0.4 8.8-3.9 17-9.9 23.5-6.8 7.3-16 11.5-25.9 11.8z"/>
						<path id="&lt;Path&gt;" class="s0" d="m555 347.5c-5.5-5.1-12.5-7.8-19.9-7.8q-0.5 0-1 0c-16.1 0.6-28.7 14.1-28.2 30.2 0.3 7.8 3.6 15 9.3 20.3 5.5 5 12.5 7.8 19.8 7.8q0.6 0 1.1 0c16.1-0.6 28.7-14.1 28.1-30.2-0.2-7.8-3.5-15-9.2-20.3z"/>
						<path id="&lt;Path&gt;" class="s0" d="m637.7 296.8c-4.5 0-8.8-0.9-12.8-2.6l0.5 1.5-5.7-4.4q-1.7-1.2-3.4-2.6l-3.7-2.9-9.4 21-16.3 13.8-38.2-15.3c-1.2-0.5-2.4-0.7-3.6-0.7-2.5 0-5 1-6.8 2.8-4.7 4.7-3.4 12.6 2.5 15.5l36.8 18c3.3 1.6 6.8 2.4 10.3 2.4 3.5 0 7-0.8 10.2-2.4l24.3-11.8c6.8-3.3 12.3-8.7 15.6-15.4l8.2-16.7q0.4-0.8 0.7-1.5-3.9 1.1-8 1.3-0.6 0-1.2 0z"/>
						<path id="&lt;Path&gt;" class="s0" d="m575 249.3q-0.3 0-0.7 0c-4.2 0-7.9 3.2-8.4 7.4-0.7 5 3 9.4 7.9 9.7l29.1 1.9 3.1 2.3q-0.5-2.4-0.6-5c-0.2-4.8 0.7-9.4 2.5-13.7q0 0 0 0z"/>
						<path id="&lt;Path&gt;" class="s0" d="m637.7 240.1q-0.4 0-0.9 0c-13.4 0.5-23.9 11.8-23.4 25.2 0.2 6.5 2.9 12.5 7.7 17 4.5 4.2 10.4 6.5 16.6 6.5q0.4 0 0.9 0c6.5-0.2 12.5-3 16.9-7.7 4.5-4.8 6.8-11 6.6-17.5-0.5-13.2-11.3-23.5-24.4-23.5z"/>
						<path id="&lt;Path&gt;" class="s0" d="m413.9 406.7c-1.1-6-6.4-10.4-12.5-10.4-7.2 0-12.7 5.9-12.7 12.7q0 1.6 0.4 3.1l6.6 26.6-31.1-2.2q-2.1 2.8-4.7 5.2c-7.2 6.7-16.6 10.4-26.4 10.4q-0.7 0-1.4 0c-10.4-0.4-20-4.8-27.1-12.4q-1.3-1.4-2.5-3l-27.5 2 6.6-26.6q0.4-1.6 0.4-3.1c0-6.8-5.6-12.7-12.7-12.7-6.2 0-11.4 4.4-12.5 10.4l-8 41.8c-2.2 11.2 6.4 21.5 17.7 21.5h29.8v33.3c0 5.7 4.6 10.3 10.3 10.3h57.5c5.7 0 10.3-4.6 10.3-10.3v-33.3h29.7c11.4 0 20-10.3 17.8-21.5z"/>
						<path id="&lt;Path&gt;" class="s0" d="m332.3 444.1q0.6 0 1.2 0c7.8 0 15.2-2.9 21-8.3 6-5.6 9.5-13.2 9.8-21.4 0.3-8.3-2.7-16.1-8.3-22.2-5.6-6-13.2-9.5-21.5-9.8q-0.5 0-1.1 0c-7.8 0-15.2 2.9-21 8.3-6 5.6-9.5 13.2-9.8 21.5-0.3 8.2 2.6 16.1 8.3 22.1 5.6 6 13.2 9.5 21.4 9.8z"/>
					</g>
					<g id="&lt;Group&gt;">
						<path id="&lt;Path&gt;" class="s1" d="m236.6 335.4c2.4-0.5 3.6-2.2 2.6-3.7-1-1.5-3.6-2.2-6-1.6-2.7 0.7-3.7 2.1-2.7 3.7 1.1 1.5 3.6 2.2 6.1 1.6z"/>
						<path id="&lt;Path&gt;" class="s1" d="m236.1 343.5c1.3 2 4 2.9 7 2.2 3.1-0.7 4.3-2.6 3-4.6-1.3-2-4.4-2.9-7.3-2.2-2.9 0.7-4 2.5-2.7 4.6z"/>
						<path id="&lt;Path&gt;" class="s1" d="m185.9 295.6c-3.8 0.6-5 2.5-3.2 5.3 0.2 0.2 0.5 0.7 1 1.1 1.7 1.5 3.8 1.8 6.5 1.1 3-0.8 4.1-2.5 2.8-4.7-1.2-2.2-4-3.3-7.1-2.8z"/>
						<path id="&lt;Path&gt;" class="s1" d="m392.8 358.2c3.4 1 7.1-0.3 7.3-2.6 0-0.9-0.4-1.9-0.6-2.5-0.5-0.6-0.8-1-1.1-1.2-1.7-1.5-4.1-1.9-6.5-1.4-2.6 0.7-3.9 2-3.5 3.8 0.5 1.7 1.8 3.1 4.4 3.9z"/>
						<path id="&lt;Path&gt;" class="s1" d="m476.2 283.8c3.1-0.8 5.7-1.5 8.6-2.2-2-2.9-3.8-5.6-6-8.7-0.9 3.8-1.7 7.2-2.6 10.9z"/>
						<path id="&lt;Path&gt;" class="s1" d="m212.5 250.4q0 0-0.1 0c-0.3-0.4-0.5-0.8-0.8-1.2-1-1.1-1.7-2.3-2.9-3.3-1.9-1.7-4.1-2-6.6-1.1-2.1 0.6-3.1 1.9-2.1 3.7 1.7 3.1 3.8 6.1 5.7 9.1 0.4 0.6 1.2 1.2 1.9 1.7 1.4 1 3 1.2 5 0.8 1.9-0.4 3-1.3 3.1-2.6 0-0.6-0.1-1.2-0.4-1.8-0.8-1.8-1.8-3.6-2.8-5.3z"/>
						<path id="&lt;Path&gt;" class="s1" d="m341.5 275.4c7.2-1.9 10.7-7.5 7.5-11.9-3-4.3-12.1-6.4-19.1-4.5-7.6 2-10.9 7.1-7.7 11.8 3.2 4.5 12 6.6 19.3 4.6z"/>
						<path id="&lt;Compound Path&gt;" fill-rule="evenodd" class="s1" d="m661.4 286.5q-2.3 2.4-4.9 4.3l-0.7 3c-0.6 2.3-1.4 4.6-2.5 6.7l-8.2 16.7c-4.1 8.3-10.9 15.1-19.2 19.1l-24.3 11.8c-4.3 2.1-9 3.1-13.7 3.1-4.8 0-9.5-1.1-13.8-3.1l-14.5-7.1q0.4 0.3 0.8 0.7c4.5 4.1 7.8 9.2 9.8 14.9l5.9 6.5 17.2 18.8c4.4 4.8 6.5 11.3 5.8 17.7-0.7 6.4-4.1 12.2-9.4 16l-10.4 7.4 0.8 23.4c0.4 10.5-6.4 19.9-16.4 22.9l-40 11.9q-3.2 0.9-6.6 1c-12.4 0-22.5-9.8-22.9-22.2l-0.4-9.8-14.5 2q-2.1 0.3-4.3 0.3c-12 0-23-6.7-28.6-17.4l-13.1-24.8q-5 1.3-10.1 2.4 0 0 0 0l6.6 34.3c1.4 7.7-0.6 15.6-5.6 21.6-4.9 6-12.3 9.4-20.1 9.4h-21.7v25.3c0 10.1-8.2 18.3-18.3 18.3h-57.5c-10.1 0-18.3-8.2-18.3-18.3v-25.3h-21.8c-7.8 0-15.1-3.4-20-9.5-5-6-7-13.8-5.6-21.5l6.6-34.3q-5.1-1.1-10.1-2.4l-13.1 24.8c-5.6 10.7-16.6 17.4-28.6 17.4q-2.2 0-4.3-0.3l-14.5-2-0.4 9.8c-0.4 12.4-10.5 22.2-22.9 22.2q-3.4-0.1-6.6-1l-40-11.9c-10-3-16.8-12.4-16.4-22.9l0.8-23.4-10.4-7.4c-5.3-3.8-8.7-9.6-9.4-16-0.7-6.4 1.4-12.9 5.8-17.7l17.2-18.8 5.9-6.5c2-5.7 5.3-10.8 9.8-14.9q0.4-0.4 0.8-0.7l-14.5 7.1c-4.3 2-9 3.1-13.8 3.1-4.7 0-9.5-1-13.7-3.1l-24.3-11.8c-8.3-4-15.1-10.8-19.2-19.1l-8.3-16.7c-1-2.1-1.8-4.4-2.4-6.7l-0.7-3q-2.6-1.9-4.9-4.3c-5.9-6.3-8.9-14.6-8.6-23.2 0.3-8.4 3.8-16.3 9.9-22.1 6-5.9 14-9.1 22.4-9.1q0.6 0 1.1 0c8.7 0.3 16.6 4 22.5 10.3q1 1 1.8 2.1 1.9-0.4 3.8-0.5l21.9-1.8q0.6-2.2 1.3-4.4l-21.9-2.1c-8.3-0.5-15.9-4.2-21.4-10.4-5.6-6.2-8.5-14.2-8.2-22.6l0.9-23c0.4-10 5.7-19.1 14.3-24.3l2.4-1.5-2.2-1.2 4.7-2.6c-12.2-4.9-20.6-17.2-19.7-31.1 1.1-16.5 14.8-29.3 31.3-29.3q1 0 2 0c8.4 0.6 16 4.3 21.5 10.6 5.6 6.3 8.3 14.4 7.8 22.7-0.3 3.8-1.2 7.4-2.7 10.7q3.2 0.1 6.4 0.9l29.9 7.7q-0.1-0.2-0.1-0.5c-1.8-5.7-1-11.9 1.9-17.1l13.6-23.6c3.6-6.2 9.7-10.7 16.7-12.2l7-1.6h0.1c-10.1-5.1-17-15.6-17-27.6 0-17.2 14-31.1 31.1-31.1 17.2 0 31.1 13.9 31.1 31.1 0 6.7-2.1 12.9-5.7 18l0.8-0.2-0.5 1.3q1.1-0.1 2.2-0.1c4.2 0 8.4 1 12.1 3l28.1 15c4.8 2.6 8.6 6.7 10.8 11.7l-1.2-3.4c-1.9-5.6-0.4-11.9 3.9-16l27-25.9c5.7-5.5 13.3-8.6 21.3-8.6h1.2c-6.4-5.6-10.4-13.8-10.4-23 0-17 13.9-30.8 30.8-30.8 17 0 30.9 13.8 30.9 30.8 0 9.2-4.1 17.4-10.4 23h1.2c7.8 0.1 15.1 3.1 20.8 8.5l27.5 26c3 2.8 4.6 6.7 4.7 10.7 2.2-3.4 5.3-6.1 8.8-8l28.1-15q2.8-1.5 5.9-2.3 3-0.8 6.2-0.8 1.1 0 2.1 0.1l-0.4-1.2 0.8 0.2c-3.6-5.1-5.8-11.3-5.8-18.1 0-17.1 14-31.1 31.1-31.1 17.2 0 31.1 14 31.1 31.1 0 12.1-6.8 22.5-16.9 27.7l7.1 1.6c7 1.5 13.1 6 16.7 12.2l13.5 23.5c3 5.2 3.8 11.5 2 17.2q0 0.2-0.1 0.4l29.9-7.7q3.2-0.7 6.4-0.9c-1.5-3.2-2.4-6.8-2.7-10.6-0.5-8.4 2.2-16.4 7.8-22.7 5.5-6.3 13.1-10.1 21.5-10.6q1-0.1 2-0.1c16.5 0 30.2 12.9 31.3 29.3 0.5 8.4-2.2 16.4-7.8 22.7-3.3 3.8-7.4 6.7-11.9 8.5l4.7 2.5-2.2 1.3 2.4 1.5c8.6 5.1 13.9 14.2 14.3 24.2l0.9 23.1c0.3 8.3-2.6 16.3-8.2 22.5-5.5 6.2-13.2 9.9-21.4 10.5l-23.5 2.2q1.7 4.7 2.9 9.3 0 0 0 0l21.9 1.8q1.9 0.1 3.8 0.5 0.8-1.1 1.8-2.1c5.8-6.3 13.8-10 22.5-10.3q0.5 0 1.1 0c8.4 0 16.4 3.2 22.4 9.1 6.1 5.8 9.6 13.7 9.9 22.1 0.3 8.6-2.7 16.9-8.6 23.2zm-53.5-34.6l-32.9-2.6q-0.3 0-0.7 0c-4.2 0-7.9 3.2-8.4 7.4-0.7 5 3 9.4 7.9 9.7l29.1 1.9 3.1 2.3q-0.5-2.4-0.6-5c-0.2-4.8 0.7-9.4 2.5-13.7q0 0 0 0zm-537.1 24.2l-5.1 3.8-1.1 0.9 9.4 21 11.3 9.6 5.2-2.1c-5.2-11.2-8.3-22.6-9.3-33.9zm17.4-46l14.2 1.4q0.4 0 0.8 0c1.6 0 3.2-0.4 4.5-1.2q1.3-0.8 2.3-1.9 0.8-0.9 1.3-2 0.5-1 0.7-2.2 0.1-0.6 0.1-1.1 0.1-0.4 0-0.8 0-0.5 0-0.9-0.2-1.7-1-3.1c-1.4-2.4-3.8-4.2-6.7-4.6l-7.4-1-30.5-4.1 8.4-15.7-4 13.6 27.5 4q4.6-7.3 10.4-14.2l-6.9-29.6 25 0.2 7.4 4.8 10.7 7c1.4 0.9 2.9 1.3 4.5 1.3 1.8 0 3.6-0.6 5.1-1.8 4.3-3.4 4-10-0.5-13.1l-5.4-3.7-10.2-7c-3-2-6.3-3.4-9.7-4.3l-30.2-7.7q-2.6-0.7-5.3-0.7-2.3 0-4.5 0.5-1.3 0.2-2.5 0.6l0.2 1.5 5.3 31.9-13.6-19.6 0.6-7.1 0.2-3.7-12.1 6.5-0.9 0.5 8.9 5 8.9 22.4-26.1-20.7-4.4 2.7c-6.3 3.8-10.2 10.5-10.5 17.8l-0.9 23.1c-0.5 12.9 9.4 23.9 22.3 24.7zm56.9-82.1l4.1 2 9.6 5.1 12.7 6.7c1 0.5 2.1 0.7 3.2 0.7q0.7 0 1.5-0.1 1.2-0.3 2.2-1 1-0.6 1.7-1.6 0.2-0.3 0.4-0.6 0.4-0.6 0.6-1.3c0.9-2.8 0-6-2.6-7.8l-4.7-3.1-13.6-9.3 11.3-11.4 2.2 18 5.7-0.1h0.1c12.8-6.1 26.8-11.5 41.8-16l-2.4-16.1 22.3 4.6 2.9 5.3 5.8 10.7q0.2 0.5 0.5 0.8c0.8 1.1 1.8 1.8 2.9 2.3q0.8 0.4 1.8 0.5 0.4 0.1 0.9 0.1 0.3 0 0.6-0.1 0.9 0 1.7-0.4c3.8-1.3 5.7-5.6 4-9.3l-3.5-7.7-3.3-7.2c-1.4-3.4-4-6.2-7.3-7.9l-28.1-15c-2.6-1.4-5.4-2.1-8.3-2.1q-1.9 0-3.8 0.4l-5.2 1.2-1.8 27.6-6.5-17.4 3.3-9.7-13.9 3.5 7.5 7 2.1 16.3-17.1-21.5-12 2.6c-4.9 1.1-9 4.2-11.5 8.4l-13.6 23.6c-3.9 6.9-1.3 15.7 5.8 19.3zm124-45.6l4.9 13.8 3.7 10.6c1.1 3 3.8 4.8 6.8 4.8 0.7 0 1.4 0 2.1-0.3 3.8-1.1 6-5.1 4.9-8.9l-1.2-4.1-1.2-4.1-3-10.8 19.8-10.7v20c19.8-1.5 39.7-1.4 59.1 0v-20l19.8 10.7-3.1 10.8q0 0 0 0l-2.3 8.2q-0.3 1-0.3 2c0 3.1 2 6 5.1 6.9q1.1 0.4 2.1 0.3c1.5 0 3-0.4 4.2-1.3 1.2-0.8 2.1-2 2.6-3.5l3.8-10.5 4.8-13.8c1-2.7 0.2-5.7-1.8-7.7l-27.5-26c-4.3-4-9.9-6.2-15.8-6.2h-6.4l-10.9 28.4-2.3-19.9 5.5-8.5h-14.1l5.4 8.5-2.2 19.9-10.9-28.4h-6.9c-5.9 0-11.6 2.2-15.8 6.3l-27 25.9c-2.1 2-2.8 5-1.9 7.6zm106.3 5l-2.4-1.3v7.2q0.3 0.1 0.6 0.1zm34.6 11.1l-0.7 1.5-0.7 1.6c-1.6 3.6 0.2 7.9 4 9.3q1.2 0.4 2.3 0.4c2.5 0 4.9-1.3 6.1-3.6l3.4-6.2 5.3-9.8 22.4-4.6-3.2 20.8c10.6 3.3 20.9 6.9 30.7 11.1h0.1l17.5 0.3 2.3-18.1 11.3 11.5-18 12.2-0.3 0.2c-3.2 2.2-4 6.6-1.7 9.7 0.7 0.9 1.5 1.5 2.4 2q0.4 0.2 0.8 0.3 1.1 0.4 2.3 0.4c1 0 2.1-0.2 3.1-0.8l8.1-4.2 14.3-7.5 4-2c7.1-3.6 9.8-12.4 5.8-19.3l-13.6-23.6c-2.4-4.3-6.6-7.3-11.4-8.4l-12.1-2.6-17.1 21.5 2.1-16.3 7.5-7.1-13.9-3.4 3.3 9.7-6.5 17.4-1.8-27.7-5.2-1.1q-1.9-0.4-3.8-0.4c-2.8 0-5.7 0.7-8.3 2l-28.1 15.1c-3.2 1.7-5.8 4.5-7.3 7.9zm122.3 30.9l-13.9 9.6-0.8 0.5-0.9 0.6c-4.5 3.1-4.7 9.7-0.5 13.1 1.5 1.2 3.4 1.8 5.2 1.8 1.5 0 3.1-0.4 4.5-1.3l7.1-4.7 11-7.1 24.9-0.2-7.4 32.2 10.9 11.6 27.5-4-3.9-13.6 8.3 15.7-33.4 4.5-4.4 0.6c-4.7 0.6-8.1 4.8-7.8 9.4q0.1 0.3 0.1 0.5 0 0.3 0.1 0.5 0.2 1.2 0.7 2.3 0.3 0.7 0.8 1.3c1.6 2.3 4.3 3.8 7.2 3.8q0.5 0 0.9-0.1l12.1-1.1 26-2.5c12.9-0.8 22.9-11.8 22.4-24.7l-0.9-23.1c-0.3-7.3-4.2-14-10.5-17.8l-4.4-2.7-26.2 20.7 8.9-22.4 9-5-0.9-0.5-12.2-6.5 0.3 3.7 0.6 7.1-13.6 19.6 5.2-31.9 0.3-1.5q-1.2-0.4-2.5-0.6-2.2-0.5-4.5-0.5-2.7 0-5.4 0.6l-30.1 7.8c-3.5 0.9-6.8 2.3-9.8 4.3zm48 160l5.2 2.1 11.3-9.6 9.5-21-1.2-0.9-5-3.9-10.5-0.6c-1.1 11.5-4.2 22.9-9.3 33.9zm1.6-191.9c0.3 4 1.5 7.6 3.4 10.8 4.2 6.7 11.6 11.1 19.9 11.1q0.4 0 0.8 0 0.4 0 0.7-0.1c12.9-0.8 22.6-11.9 21.8-24.8-0.8-12.3-11.1-21.8-23.3-21.8q-0.7 0-1.5 0c-12.9 0.9-22.6 12-21.8 24.8zm-23 52.2l-12.5 0.1-6.8 4.4q8.1 6.6 15 13.9zm-95-115.1c0 12.8 10.3 23.2 23.1 23.2 12.8 0 23.1-10.4 23.1-23.2 0-12.7-10.3-23.1-23.1-23.1-12.8 0-23.1 10.4-23.1 23.1zm-21.4 62.6l-7.6 1.5-2.5 4.6q4.4 1.1 8.7 2.3zm-106.9-62.8c12.6 0 22.8-10.2 22.8-22.8 0-12.6-10.2-22.8-22.8-22.8-12.6 0-22.8 10.2-22.8 22.8 0 12.6 10.2 22.8 22.8 22.8zm-38.2 59q0.3 0 0.7 0v-7.3l-2.5 1.3 1.8 6q0 0 0 0zm-113.3-30.5c12.8 0 23.1-10.4 23.1-23.1 0-12.8-10.3-23.2-23.1-23.2-12.8 0-23.1 10.4-23.1 23.2 0 12.7 10.3 23.1 23.1 23.1zm52.2 41.1l-0.1-0.2-7.6-1.5 0.6 3.6q3.5-1 7.1-1.9zm-172 20.4q0.4 0 0.8 0 0.4 0 0.8 0c8.3 0 15.7-4.4 19.8-11.1 2-3.1 3.2-6.8 3.4-10.7 0.9-12.9-8.9-24-21.8-24.8q-0.7-0.1-1.5-0.1c-12.2 0-22.5 9.5-23.3 21.9-0.8 12.8 9 24 21.8 24.8zm63.8 32.7l-3.4-2.2-12.5-0.1 3.3 14.3q5.8-6.2 12.6-12zm-65.1 74.9c1.8 4.3 2.7 8.9 2.5 13.7q0 2.5-0.5 5l3.1-2.4 29-1.8c5-0.3 8.6-4.8 8-9.7-0.6-4.3-4.2-7.4-8.5-7.4q-0.3 0-0.7 0l-32.8 2.6q0 0-0.1 0zm-30.6 36.9q0.4 0 0.9 0c6.1 0 12-2.3 16.5-6.5 4.8-4.5 7.5-10.5 7.8-17 0.5-13.4-10.1-24.7-23.5-25.2q-0.4 0-0.9 0c-13 0-23.8 10.3-24.3 23.5-0.2 6.5 2.1 12.7 6.5 17.4 4.4 4.8 10.5 7.5 17 7.8zm97.7 34.1c5.9-2.9 7.3-10.8 2.6-15.5-1.9-1.9-4.3-2.8-6.8-2.8-1.2 0-2.5 0.2-3.6 0.7l-38.2 15.3-16.4-13.8-9.4-21-3.7 2.9q-1.6 1.4-3.4 2.6l-5.7 4.4 0.5-1.6c-4 1.8-8.3 2.7-12.7 2.7q-0.6 0-1.2-0.1-4.2-0.1-8-1.2 0.3 0.7 0.6 1.4l8.3 16.8c3.3 6.7 8.8 12.1 15.5 15.4l24.3 11.8c3.3 1.6 6.8 2.4 10.2 2.4 3.6 0 7.1-0.8 10.3-2.4zm104.5 76.2c2.9-5.6 0.5-12.5-5.3-15.1-1.4-0.7-3-1-4.5-1-3.4 0-6.7 1.6-8.8 4.5l-20.2 27.5-44-12.6c-4.9 2.3-10.3 3.6-15.9 3.6q-0.7 0-1.3-0.1c-10-0.3-19.1-4.5-25.9-11.8-6.1-6.5-9.5-14.7-9.9-23.5l-15.2 16.7c-6 6.5-4.9 16.7 2.3 21.8l13.9 9.9-1 27.7c-0.2 6.8 4.2 13 10.7 14.9l40 11.9q2.2 0.7 4.4 0.7c7.8 0 14.6-6.2 14.9-14.5l0.7-18.5 23.2 3.1q1.6 0.2 3.2 0.2c9 0 17.4-5 21.6-13.1zm-99.7-1.1q0.6 0 1.1 0c7.4 0 14.4-2.8 19.8-7.8 5.7-5.3 9-12.6 9.3-20.3 0.6-16.1-12-29.7-28.1-30.2q-0.5 0-1.1 0c-7.4 0-14.4 2.7-19.8 7.8-5.7 5.3-9 12.5-9.3 20.3-0.6 16.1 12 29.6 28.1 30.2zm26.4-2q-0.4 0.3-0.7 0.6l32.1 9.2 5.9-8c-10.1-4-19.8-8.3-29-13.2q0 0 0 0c-2 4.3-4.8 8.1-8.3 11.4zm268.7-16.5c17.5-5.5 33.3-12.4 47.5-20.7 10.7-6.2 20.1-13.1 28.4-20.6 7.9-7 13.9-14.6 19.3-22.4q1.5-2.3 2.9-4.5v-0.1q0 0 0 0c0.6-3.5 2.3-6.8 4.9-9.4q0.2-0.2 0.3-0.4 0.1 0 0.1 0 2.6-5.8 4.5-11.8c3.5-11.5 4.2-23.1 2.5-34.7-1.3-8.2-3.9-16.3-7.7-24.3-3.7-7.7-8.6-15.2-14.7-22.3q-9.6-11.3-22.8-21.2c-11.2-8.4-23.7-16.1-38.2-22.4-21.9-9.7-46.2-16.5-72.5-20.6-16.7-2.6-33.6-3.8-50.8-3.7-24 0.1-47.3 2.8-69.7 7.8-16.3 3.6-31.5 8.5-45.7 14.6-12.7 5.4-24.5 11.5-34.8 18.5-16 10.9-28.4 23.2-37.7 36.7-7.7 11.3-13 23-15.1 35.1q-4 24.2 6.7 47.7 0 0 0 0 0.5 0.5 1 1c2.8 2.7 4.6 6.4 5 10.2q6.2 9.9 14.9 19c9.7 10.3 21.6 19.5 35.6 27.7 15.6 9.2 33.2 16.7 52.8 22.3 17.5 5 35.7 8.7 54.9 10.5q0 0 0 0 1.1-1.6 2.4-3.2c-5.3-0.2-10.1-1-15.4-1.7 1.3-2.7 2.6-5.2 3.9-7.9-1.7-0.3-3.2-0.5-5.1-0.9-1.4 2.6-2.7 5.2-4.2 8-4.3-0.8-8.4-1.6-13-2.5 1.5-2.8 2.9-5.4 4.4-8.3-1.6-0.3-3.1-0.6-5-0.9-1.5 2.7-2.9 5.3-4.5 8.1-5.3-1.4-10.4-2.7-15.9-4.1 1.9-2.3 3.8-4.5 5.8-6.9-1.5-0.4-2.9-0.9-4.5-1.4-2.1 2.3-4.1 4.4-6.3 6.8-4.7-1.6-9.3-3.2-14.3-4.9 2.3-2.1 4.3-4 6.5-6.1-1.5-0.6-2.8-1.1-4.3-1.7q-3.3 2.9-6.4 5.6c-2.6-0.4-9.4-3.3-12.7-5.3 5.5-4.2 11.1-8.4 16.9-12.7-1.4-0.7-2.6-1.3-4.1-2-5.8 4.2-11.4 8.4-17.3 12.7-3.3-1.7-6.5-3.4-10-5.3 2.8-2.1 5.5-4 8.3-6.1-1.3-0.8-2.4-1.4-3.8-2.2-1.5 1-2.9 2-4.2 2.9-1.3 0.9-2.7 1.9-4.2 3-3.9-2.2-7-4.5-10.2-6.9 2.2-2 5.9-3 8.3-5.1-1-0.7-2-1.4-3.3-2.3-3 1.6-5.8 3.1-8.9 4.7-3.1-2.6-6.5-4.8-9.1-7.8 3.3-1.3 6.5-2.6 9.9-4-1-0.9-1.8-1.7-2.7-2.7-3.6 1.4-6.9 2.7-10.6 4.1-2.7-2.9-5.4-5.6-8.1-8.4 3.7-1.2 7.1-2.4 10.8-3.6-0.8-1-1.5-1.8-2.4-2.8-3.7 1.1-7.2 2.1-10.9 3.3-2-2.4-3.7-4.6-5.6-7 7.9-2.4 16.3-3.8 24.2-6.2-0.6-1-1.1-1.9-1.8-3-8.3 2-16.3 3.9-24.6 5.9-1.6-2.6-3-5.1-4.6-7.7l11.2-3c-0.6-1-1.1-1.9-1.8-3.1l-10.8 2.8c-1.9-3.4-3.2-6.5-4.2-10.1 4.3-0.3 8.4-0.7 12.7-1.1-0.2-1.1-0.4-2-0.6-3.2-4.5 0.4-8.7 0.7-13.3 1-0.7-2.8-1.3-5.5-2-8.5 4.2-0.3 8.2-0.6 12.5-0.9-0.2-1.1-0.3-2-0.4-3.1-4.3 0.2-8.3 0.3-12.8 0.5-0.2-3.2-0.4-6.1-0.6-9.4 4.7 0.1 8.9 0.2 13.4 0.3 0.1-1.1 0.2-2.1 0.3-3.2-4.6-0.1-8.9-0.3-13.4-0.4-0.1-3.6 0.3-7 1.1-10.6 7.9 0.8 15.5 1.6 23.4 2.4 0.3-1.1 0.6-2.1 0.9-3.3-8-0.8-15.7-1.6-23.8-2.4 0.8-2.9 1.6-5.6 2.4-8.6 4.7 0.7 9.1 1.3 13.8 2 0.4-1.1 0.7-2 1.2-3.2-4.7-0.7-9-1.3-13.8-2 1.6-3.1 3-6.1 4.5-9.1 4.8 0.7 9.3 1.4 13.9 2.1 0.6-1 1.1-1.9 1.6-3-4.6-0.8-9-1.6-13.7-2.4 2.2-3.3 4.3-6.4 6.5-9.8 4.5 1.3 8.7 2.5 13.2 3.8 0.8-1 1.5-1.9 2.3-2.9-4.5-1.3-8.6-2.6-13.2-3.9 2.8-3.2 5.5-6.3 8.3-9.6 4.5 1.7 8.6 3.2 12.9 4.8 1-0.9 1.8-1.7 2.8-2.7-4.2-1.7-8.4-3.3-12.7-5 2.7-2.4 5.2-4.6 8.1-7.2 7.4 3.3 14.6 6.5 22.2 9.8 1-0.9 2-1.7 3-2.7-7.3-3.2-14.4-6.4-21.8-9.7 3.1-2.6 6.4-5 9.9-7.3 3.9 2 7.6 3.9 11.5 5.9 1.2-0.8 2.2-1.5 3.5-2.4-3.7-2-7.3-4-11.2-6.1 3.7-2.1 7.3-4.2 11.1-6.4 3.8 2.5 7.4 4.8 11.2 7.2 1.3-0.7 2.5-1.4 3.9-2.2-3.6-2.4-7.1-4.7-10.8-7.2 4.2-2 8-3.8 12.2-5.7 3.5 2.3 6.8 4.5 10.4 6.9 1.3-0.8 2.5-1.4 3.9-2.2-3.2-2.2-6.2-4.2-9.4-6.5 4.4-2.2 9.2-3.7 14.2-5.4 2.3 2.7 4.4 5.3 6.5 7.9l4.9-1.2c-2.2-2.8-4.2-5.5-6.5-8.3 4.3-1.3 8.4-2.5 12.9-3.8 3.9 5.2 7.1 10.5 10.7 15.7l4.8-1.2c-3.4-5.2-6.7-10.4-10.3-15.8 4.1-0.9 7.9-1.7 11.9-2.6 2.2 2.9 4.2 5.6 6.3 8.4l4.8-1.3-5.6-8c5.5-1.3 11.1-1.9 17.1-2.7 0.9 3 1.7 5.9 2.6 9 1.7-0.1 3.3-0.3 5.2-0.4-0.8-3.1-1.5-6.1-2.3-9.3 5.1-0.4 10.1-0.8 15.3-1.2 0.7 3 1.4 5.8 2.1 8.8 1.8 0 3.3-0.1 5.3-0.2-0.7-3-1.2-5.8-1.9-8.9 5.9-0.1 11.4-0.2 17.3-0.3-0.1 2.7-0.3 5.3-0.5 8.1 1.7 0.1 3.2 0.1 5.1 0.2 0.3-2.7 0.6-5.3 1-8.1 4.9 0.2 9.5 0.5 14.6 0.8-1.8 5.9-3.5 11.7-5.4 17.7 1.7 0.2 3.3 0.4 5.2 0.6 1.9-6 3.7-11.7 5.6-17.8 5 0.6 9.6 1.1 14.6 1.7-1.2 2.8-2.3 5.4-3.5 8.2 1.7 0.4 3.2 0.6 5 1 1.3-2.9 2.5-5.5 3.9-8.4 5.5 1 10.8 2 16.5 3-1.4 2.5-2.6 4.7-4 7.2 1.5 0.3 3 0.7 4.8 1.1q2.1-3.5 4.1-6.7c4.5 1.1 8.7 2 13.3 3-1.8 2.3-3.5 4.4-5.4 6.7 1.6 0.5 2.9 0.9 4.6 1.5 1.9-2.3 3.7-4.4 5.8-6.7 4.8 1.6 9.4 3.1 14.3 4.7-2.1 2-4 3.8-6.2 5.9 1.4 0.6 2.7 1.2 4.2 1.8 2.2-2 4.3-3.8 6.5-5.8 3.7 1.1 6.7 2.6 10.1 4.1-4.9 4.2-9.6 8.2-14.6 12.5 1.5 0.7 2.7 1.3 4.2 2 5-4.2 9.8-8.3 14.9-12.6 4.8 2.6 9.3 5 13.9 7.4-1.5 2-4.2 3.3-6.1 5 0.6 1.1 2.2 1.6 3.9 2.3 2.1-1.5 4.1-3 6.3-4.6 3.8 2 6.8 4.3 10.1 6.6-2.7 1.8-5.3 3.5-8 5.3 1.3 0.8 2.4 1.4 3.8 2.2 2.6-1.6 5.1-3.1 7.8-4.8 3.8 2.6 7 5.3 10.2 8.2-3.4 1.1-6.6 2.2-10.1 3.3 0.8 1 1.6 1.9 2.5 2.9 3.6-1.1 7-2.2 10.6-3.3 2.7 2.1 4.9 4.4 7 7-4 1.1-7.9 2.2-11.9 3.3l1.9 2.9 12.8-3.3c2 2.6 4 5.2 6.1 7.9l-23.1 6 2 2.9c7.7-1.6 15-3.9 22.9-5.6 2.2 2.5 3.6 5.1 5 7.8-1.9 0.9-4.1 0.8-6 1.1-1.9 0.4-3.9 0.6-6.1 0.9 0.2 1 0.4 1.9 0.7 3.1 4.4-0.5 8.5-1 13.1-1.6 1.2 2.8 2.4 5.5 3.6 8.4-3.7 0.4-7.1 0.8-10.8 1.2 0.3 1.1 0.6 2.1 0.9 3.2 3.7-0.4 7.1-0.7 10.8-1.1 1.2 3.3 2 6.4 2.4 9.9-4 0-7.8 0.1-12 0.1-0.1 1.1-0.1 2.1-0.1 3.3 4.3 0 8.3 0 12.4 0 1 3.3 1 6.5 0.9 10-4.2-0.3-8.2-0.6-12.5-0.9-0.3 1-0.6 2-0.9 3.2 4.5 0.4 8.7 0.8 13.4 1.2-0.3 3-0.6 6-1 9.2-8.2-0.9-16.2-1.7-24.4-2.6-0.4 1.1-0.7 2-1.1 3.2 8.3 0.9 16.3 1.8 24.7 2.7-0.8 3.1-1.6 6-2.5 9.1-4.8-0.6-9.1-1.2-13.8-1.8-0.4 1-0.8 1.9-1.3 3.1 4.7 0.7 9.1 1.4 13.9 2.1-1.4 3.2-2.8 6.2-4.3 9.5-5.1-0.9-9.8-1.7-14.7-2.6-0.6 0.9-1.2 1.8-1.8 2.9 4.6 1.3 9.5 1.7 14.4 3-1.6 2.9-3.5 5.7-5.7 8.6-4.9-1.2-9.8-2.3-14.9-3.5-0.6 1-1 1.9-1.6 3 4.4 1.1 9.1 2.3 14.3 3.6-2 2.6-4 5.1-6.5 7.7-5.1-1.6-9.9-3.1-15.1-4.8-0.9 1-1.6 1.8-2.6 2.9 5 1.6 9.7 3.2 14.8 4.9-2.5 3-5.6 5.8-9 8.7-7.9-3.6-15.6-7.2-23.6-10.8-1.1 0.9-2.1 1.7-3.2 2.6 7.9 3.6 15.5 7.2 23.4 10.8-3.3 3-7.3 5.6-11.5 8.5-3.7-1.8-7.3-3.6-11.1-5.5-1.2 0.9-2.2 1.7-3.3 2.5 3.6 1.8 7 3.6 10.6 5.5-3.8 2.2-7.3 4.4-11 6.6-3.8-2.2-7.3-4.3-11.1-6.6-1.3 0.8-2.4 1.5-3.7 2.3 3.5 2.2 6.8 4.2 10.5 6.5-4.3 2-8.3 3.9-12.6 5.9-3.3-2.9-6.3-5.6-9.5-8.4-1.5 0.6-2.8 1.2-4.3 1.8 3 2.8 6 5.5 9.1 8.4-4.8 1.9-9.4 3.6-14.2 5.4l-6.6-9.5c-1.6 0.3-3 0.7-4.9 1.1 2.1 3.3 4.2 6.6 6.3 9.9-4.1 1.6-8.5 2.6-13.2 3.8-3.7-5.5-7.2-11-10.9-16.5-1.8 0.4-3.2 0.7-4.9 1.1 3.6 5.6 7.1 11 10.7 16.6-4.7 1.4-9.5 2.2-14.3 3.1-1.9-3.2-3.7-6.1-5.5-9.2-1.6 0.3-3.1 0.6-4.8 0.9 0.8 3.2 3.6 6 4.8 9.2-5.5 1.1-10.8 1.7-16.7 2.3-0.7-3-1.2-5.8-1.9-8.8-1.8 0.2-3.3 0.3-5.2 0.4 0.5 3.1 1.1 6 1.7 9.1q-1.4 0.1-2.8 0.2 1.2 1.6 2.3 3.2 0 0 0 0c17.1-1.6 33.8-4.3 49.8-8.4 4.7-1.4 9.4-2.7 13.9-4.1zm-118-108.2q0.5 1 1.1 1.9c5.5 7.7 20.4 11.3 32.9 8q1.4-0.4 2.7-0.9l59.5 44.2 59.6 28.6-44.7-37.2-68-39.2c5.6-4.3 7.4-10.6 3.6-15.8-5.1-7.3-20.5-10.9-32.5-7.7-8.9 2.4-14.4 7.3-15.1 12.6l-103.2 9.3-11.7-1.9-31 9.3 33.3 1.8 8.4-3.5zm-81.8 67.5q-0.4 0.6-0.9 1.1c-3.2 3.9 0.9 9.1 7.9 10 6 0.7 13.3-1.3 16.2-4.6 2.5-2.8 1.5-6.9-2.5-8.9-1.5-0.8-3.4-1.2-5.3-1.8 3.5-3.5-0.1-8.5-7.9-8.8-5.1-0.1-9.5 1-12.7 3.5-3 2.4-2.7 5.9 0.8 7.9 1.2 0.7 2.9 1.1 4.4 1.6zm-31.9-30.7c-0.1 1.3-1.2 2.3-3.3 2.8-1.9 0.5-3.6 0.3-5.1-0.7-0.1-0.1-0.5-0.1-0.7-0.2l-6.2 1.6c1.1 1.7 2.4 2.5 4.8 3.1 6.6 1.6 15-0.9 17.1-5.1 1.2-2.5 0.6-5-0.6-7.4-1.6-3.3-3.8-6.4-7.9-8.8-2.5-1.5-5.4-2.2-8.9-2.1-9.5 0.4-14.9 5.2-12 10.8q0.3 0.5 0.6 1c1.7 2.4 4.5 4.2 9 4.4 4.5 0.3 8.6-0.5 11.4-2.9 0.1-0.2 0.4-0.3 1.2-0.7 0.3 1.6 0.6 2.9 0.6 4.2zm-33.7-53.8l2.1 2.9c2.8-0.6 5.5-1.2 8.3-1.8l10.3 14.9 6.7-1.8c-4.8-7.3-9.5-14.6-14.4-22l-5.7 1.5c1.1 3.5-2.9 5-7.3 6.3zm22.2-40.8l2.2 3.2 8.4-2.1c3.3 5.1 6.4 9.9 9.7 14.9l7.1-1.8c-5-7.3-9.1-14.7-14.4-21.8l-5.6 1.4c1.1 3.6-3 5-7.4 6.2zm25.2-6.1l2.1 3q4.3-1 8.4-1.9l10.1 14.6 6.9-1.8c-5-7.2-9.1-14.5-14.4-21.6l-5.6 1.4c1 3.6-3.1 5-7.5 6.3zm11.3 48.1c-1-4.3-3.2-8.3-7.4-11.7-1.1-0.9-2.5-1.7-4-2.5-2.3-1.1-5.2-1.5-8.1-1.1-7.3 1-12.1 3.6-11 8.7 0.5 2.4 1.8 4.8 2.7 7 2 2 3.5 3.8 5.5 5.4 5.5 4.4 13.5 3.3 18.8 0.6 3.3-1.7 4-4 3.5-6.4zm67-66.2c1-1.4 2.2-2.6 3.4-3.9 1.7-1.8 3.8-3.6 4.9-5.5 2.7-5-3.5-10-11.8-9.9-3.9 0.1-7.4 1-10.2 2.6-3.8 2.1-4.5 6-1.6 8.9l6.4-1.7c-0.3-0.8-0.6-1.5-0.7-2.2-0.2-2.3 3.4-3.9 6.9-3.2 2.3 0.6 3.8 1.7 3.7 3.2 0 1.2-0.5 2.4-1.4 3.4-1.3 1.7-3.1 3.2-4.6 4.9-1.1 1.3-2.1 2.6-2.7 4-1 1.9-0.5 3.9 1.1 5.9 8.2-2 16.2-3.9 24.4-6l-2.8-4c-2.6 0.7-5 1.4-7.5 2-2.4 0.5-4.6 1.4-7.5 1.5zm-31.3-13l-5.5 1.5c-0.3 3.3-0.3 3.3-7.4 6.3l2.1 3.1 8.1-2.1c3.4 5.1 6.6 10 9.8 14.9 2.8-0.4 5-0.9 7.2-1.7-4.8-7.4-9.5-14.7-14.3-22zm79.3-1.2l2.2 3.3 8.1-2.1c1.2 1.8 2.4 3.4 3.4 5 1.1 1.7 2.2 3.3 3.3 4.9 1 1.6 2.1 3.2 3.3 4.8l7-1.8c-5.1-7.3-9.2-14.5-14.3-21.7l-5.6 1.5c0.9 3.5-2.9 4.9-7.4 6.1zm88.8 26.3q1.7-1.9 3.4-3.7c1.5-1.7 3.4-3.3 4.6-5.1 3.2-4.8-2.5-11.1-12.5-10.4-2.9 0.2-5.6 0.7-8 1.8-4.8 2.3-5.9 6.2-2.7 9.6l6.4-1.7c-0.3-0.7-0.5-1.4-0.7-2-0.3-1.6 0.7-2.5 3.1-3.2 2.3-0.6 4.2-0.4 5.9 0.7 1.5 1.1 2.1 2.3 1.6 3.6-0.5 1.1-1.4 2.2-2.3 3.3-1 1.3-2.4 2.5-3.6 3.7-1.7 1.7-3 3.5-3.1 5.5-0.1 1.5 0.1 3.1 1.8 4.6 7.8-2.3 16.1-3.7 23.9-6.1l-2.8-4-14.5 3.7q-0.3-0.1-0.5-0.3zm20.7 112.3l14.3-3.7-2.5-3.6-19.4 5c1.8 4.2 3.6 8.3 5.4 12.6 3-0.7 6-0.6 7.7-2.7 1.4-2 5.9-2.1 8.3-0.5 2 1.3 2.8 2.9 2.4 4.7-0.3 1.3-1.7 2.1-3.6 2.5-1.8 0.3-3.5 0.1-4.9-0.7-0.6-0.3-1.1-0.7-1.7-1l-6.8 1.7c1.3 1.8 3.3 3 6 3.7 5.2 1.3 12.8-0.1 16.3-3 3.5-2.9 3.3-7.3-0.5-10.3-4.4-3.5-11.8-3.9-17.3-1.1-0.5 0.3-1.1 0.6-2 1-0.6-1.6-1.1-3.1-1.7-4.6zm38.7-86.4c4.3-4.5-2-9.3-9.2-9.1-4 0.1-7.5 1.1-10.4 2.7-3 1.7-4.5 5.4-1.6 7.9l6-1.5c-0.1-0.6-0.3-1.1-0.3-1.6-0.2-1.5 1.2-2.7 3.5-3.1 2.3-0.5 4.7 0.2 5.7 1.6 1 1.4 0.5 2.7-1.7 3.6-1 0.5-2.1 0.9-3.2 1.3l1.9 2.7c2.1-0.2 4-0.5 6-0.5 2.2 0 3.4 1 4.1 2.2 1.1 1.8 0 3.6-2.5 4.4-2.9 1-4.9 0.4-8.6-2.3l-6.1 1.6c0.7 2.2 3.1 3.9 6.4 4.7 6.4 1.4 15.9-1.2 18.3-5.1 2.6-4.1-0.8-8-8.3-9.5zm8.6 56.3c1.2-0.5 2.3-0.9 3.3-1.2l-2.2-3.2c-1.4 0.2-2.5 0.4-3.9 0.6-2.9-4.5-5.8-9-8.8-13.6l-8.3 2.2c-1.3 4.9-2.5 9.8-3.9 14.7-0.6 2.1 0.7 3.8 2.4 5.6 4.6-1.1 9.2-2.2 14-3.4l3.1 4.6 6.9-1.8c-0.9-1.6-1.7-3-2.6-4.5zm-110.8 61.5c0.5-1.8 3.2-3 5.8-2.6 1.1 0.2 2.1 0.6 3.1 1l6.6-1.7c-1.6-1.9-4-3-7.2-3.4-7.9-0.9-15.9 3.1-15.6 8 0.3 5.2 3.3 9.9 9 13.7 5.7 3.9 16.4 3 20.4-1.6 2.8-3.3 1.9-6.5-1.3-9.5-2.9-2.6-7.1-3.5-12.2-2.8-3.3 0.4-5.6 1.7-7.5 3.5-0.9-1.6-1.5-3.1-1.1-4.6zm-80.2 43.1q1.5-1.8 3.2-3.4 2.2-2.1 4.6-3.7c1-3 2-5.9 3-9-1.7-0.2-3.3-0.3-5.2-0.6-1.9 5.6-3.7 11-5.6 16.7zm7.1 46c5.6 6.1 13.2 9.6 21.5 9.8q0.6 0.1 1.2 0.1c7.8 0 15.2-3 20.9-8.3 6-5.6 9.5-13.3 9.8-21.5 0.3-8.2-2.6-16.1-8.2-22.1-5.7-6.1-13.3-9.6-21.5-9.8q-0.6-0.1-1.2-0.1c-7.8 0-15.2 3-21 8.3-6 5.6-9.5 13.3-9.8 21.5-0.3 8.2 2.7 16.1 8.3 22.1zm111.1 14.3l-8-41.9c-1.2-6-6.4-10.3-12.5-10.3-7.2 0-12.7 5.8-12.7 12.7q-0.1 1.5 0.3 3.1l6.7 26.5-31.2-2.2q-2.1 2.8-4.7 5.2c-7.2 6.7-16.5 10.4-26.3 10.4q-0.8 0-1.5 0c-10.4-0.4-20-4.7-27-12.3q-1.4-1.5-2.6-3l-27.5 1.9 6.6-26.5q0.4-1.6 0.4-3.1c0-6.9-5.5-12.7-12.7-12.7-6.1 0-11.4 4.3-12.5 10.3l-8 41.9c-2.1 11.1 6.4 21.5 17.8 21.5h29.7v33.2c0 5.7 4.6 10.3 10.3 10.3h57.5c5.7 0 10.4-4.6 10.4-10.3v-33.2h29.7c11.3 0 19.9-10.4 17.8-21.5zm-134-29l-2.6 10.4 12.6-0.9q-1.9-4.2-2.7-8.7 0 0 0 0-3.7-0.4-7.3-0.8zm83.6 1.2q0 0 0 0-0.8 4.2-2.5 8.1l16.3 1.1-2.6-10.4q0 0 0 0-5.6 0.7-11.2 1.2zm-65.9-72c-3.1 7.1-4.4 13.7-0.6 20.6l7.1-1.8c-0.1-0.4-0.1-0.8-0.3-1.1-3-6.2-2.5-12.5 0.7-18.6 1-2 0-3.4-1.7-5.2-4.2 1.1-8.3 2.1-12.4 3.2-4.1 1.1-8.4 1.9-12.5 3.2l2.6 3.8c5.6-1.4 11.1-2.7 17.1-4.1zm256.6 45.4c-6.8 7.2-15.9 11.4-25.8 11.8q-0.7 0-1.4 0c-5.6 0-11-1.2-15.9-3.6l-44 12.6-20.2-27.5c-2.1-2.9-5.4-4.4-8.8-4.4-1.5 0-3.1 0.3-4.5 0.9-5.8 2.6-8.2 9.6-5.3 15.2l17.1 32.3c4.2 8.1 12.6 13 21.6 13q1.6 0 3.2-0.2l23.2-3.1 0.7 18.5c0.3 8.3 7.1 14.5 14.9 14.5q2.2 0 4.4-0.6l40-11.9c6.5-2 10.9-8.1 10.7-14.9l-1-27.8 13.9-9.9c7.2-5.1 8.3-15.3 2.3-21.7l-15.2-16.7c-0.4 8.7-3.8 17-9.9 23.5zm-89.8 3.7l5.8 7.9 32.2-9.2q-0.4-0.2-0.7-0.5c-3.5-3.3-6.3-7.2-8.3-11.4q0 0 0 0-13.6 7.2-29 13.2zm82.5-50.4c-5.4-5-12.5-7.8-19.8-7.8q-0.6 0-1.1 0c-16.1 0.6-28.7 14.1-28.1 30.2 0.3 7.8 3.6 15 9.3 20.3 5.4 5.1 12.4 7.8 19.8 7.8q0.5 0 1.1 0c16-0.5 28.6-14.1 28.1-30.2-0.3-7.7-3.6-15-9.3-20.3zm91.9-52q-3.9 1.2-8 1.3-0.6 0-1.2 0c-4.4 0-8.7-0.9-12.7-2.6l0.5 1.6-5.7-4.4q-1.8-1.2-3.4-2.7l-3.7-2.8-9.4 20.9-16.4 13.8-38.2-15.3c-1.2-0.4-2.4-0.7-3.6-0.7-2.5 0-5 1-6.8 2.9-4.7 4.6-3.4 12.5 2.6 15.4l36.7 18c3.3 1.6 6.8 2.4 10.3 2.4 3.5 0 7-0.8 10.2-2.3l24.4-11.8c6.7-3.3 12.2-8.7 15.5-15.5l8.2-16.7q0.4-0.7 0.7-1.5zm15.2-31.9c-0.5-13.1-11.3-23.5-24.3-23.5q-0.5 0-0.9 0c-13.4 0.5-24 11.8-23.5 25.3 0.2 6.5 3 12.5 7.7 16.9 4.6 4.3 10.4 6.6 16.6 6.6q0.5 0 0.9-0.1c6.5-0.2 12.5-2.9 17-7.7 4.4-4.8 6.7-11 6.5-17.5z"/>
					</g>
				</g>
			</g>
		</g>
	</g>
</svg>